<svg width="91" height="91" viewBox="0 0 91 91" fill="none" xmlns="http://www.w3.org/2000/svg">
<rect width="90.6263" height="90.6263" rx="20" fill="#282828"/>
<ellipse cx="44.1511" cy="45.1682" rx="14.5234" ry="14.6687" fill="url(#paint0_radial_26_1800)"/>
<path d="M55.0112 22.7417L55.0853 22.5881C55.1895 22.6383 55.2925 22.6904 55.3953 22.7424C55.4369 22.7634 55.4537 22.8141 55.4329 22.8557C55.412 22.8975 55.3611 22.9143 55.3194 22.8934C55.2171 22.8423 55.1145 22.7915 55.0112 22.7417ZM54.6595 22.4828C54.6791 22.4406 54.7292 22.4221 54.7715 22.4416C54.8762 22.4897 54.9812 22.5379 55.0853 22.5881L55.0112 22.7417C54.908 22.6919 54.8043 22.6432 54.7006 22.5951C54.6583 22.5754 54.6398 22.5252 54.6595 22.4828ZM56.9348 23.6762C56.9109 23.7163 56.8591 23.7295 56.8189 23.7058C56.6226 23.5908 56.4244 23.478 56.224 23.3677C56.1828 23.3449 56.1675 23.2932 56.19 23.2518C56.2126 23.2103 56.2645 23.195 56.3058 23.2178C56.5078 23.3292 56.7073 23.4436 56.9051 23.5598C56.9456 23.5836 56.9589 23.6359 56.9348 23.6762ZM53.1033 21.7632C53.1087 21.7498 53.1238 21.7433 53.1373 21.7484C53.3697 21.8374 53.6018 21.9291 53.833 22.0254C53.8767 22.0436 53.897 22.094 53.8783 22.1375C53.8598 22.1807 53.81 22.2008 53.7667 22.1827C53.5735 22.1021 53.3797 22.0241 53.1856 21.9486C53.1118 21.92 53.0748 21.8371 53.1033 21.7632ZM58.3775 24.5947C58.3509 24.6334 58.298 24.6432 58.2593 24.6168C58.0717 24.489 57.8817 24.3636 57.6899 24.2404C57.6505 24.2152 57.6389 24.1628 57.6641 24.1234C57.6892 24.0841 57.7415 24.0725 57.7809 24.0977C57.9745 24.2219 58.1663 24.3478 58.3555 24.4766C58.3943 24.503 58.4041 24.556 58.3775 24.5947ZM51.4657 21.2613C51.4793 21.2162 51.527 21.1906 51.5721 21.2047C51.7903 21.2726 52.0079 21.3446 52.2253 21.4188C52.2696 21.4339 52.2931 21.4823 52.2777 21.5265C52.2623 21.5705 52.2144 21.5938 52.1703 21.5788C51.9546 21.5055 51.7385 21.4351 51.5219 21.3679C51.477 21.354 51.4517 21.3063 51.4657 21.2613ZM59.7553 25.6113C59.7256 25.6483 59.6716 25.6544 59.6343 25.625C59.4561 25.4848 59.2754 25.3469 59.0927 25.2111C59.055 25.1831 59.0472 25.1297 59.0755 25.0923L59.1118 25.042C59.1191 25.0322 59.133 25.0301 59.1428 25.0374C59.3452 25.1872 59.5449 25.3396 59.7418 25.4946C59.7779 25.523 59.7839 25.5753 59.7553 25.6113ZM49.8113 20.8175C49.8219 20.7722 49.8672 20.744 49.9125 20.7547C50.1562 20.8121 50.3995 20.8734 50.6424 20.9384C50.654 20.9416 50.6607 20.9537 50.6572 20.9652L50.6416 21.0245C50.6292 21.0703 50.5821 21.0974 50.5362 21.0853C50.3159 21.0268 50.0953 20.9712 49.8744 20.9191C49.829 20.9083 49.8007 20.8629 49.8113 20.8175ZM61.0578 26.7211C61.0263 26.7556 60.9728 26.7581 60.9382 26.7267C60.7696 26.574 60.5985 26.4233 60.4251 26.2748C60.3895 26.2443 60.3852 26.1906 60.4158 26.1549C60.4462 26.1195 60.4995 26.1153 60.535 26.1457C60.7098 26.2955 60.8822 26.4475 61.0523 26.6016C61.0869 26.633 61.0894 26.6866 61.0578 26.7211ZM48.1321 20.4889C48.1394 20.4429 48.1827 20.4115 48.2287 20.419C48.4555 20.4562 48.6822 20.496 48.9086 20.5395C48.9546 20.5483 48.9845 20.5929 48.9754 20.6388C48.9664 20.6847 48.9219 20.7145 48.876 20.7056C48.6515 20.6624 48.4267 20.6223 48.2019 20.5854C48.1561 20.5779 48.1248 20.5348 48.1321 20.4889ZM62.2818 27.9168C62.2479 27.949 62.1943 27.9477 62.1619 27.9139C62.0044 27.7502 61.8445 27.5882 61.6822 27.4285C61.6485 27.3954 61.648 27.3411 61.6812 27.3075C61.7141 27.2741 61.7679 27.2736 61.8013 27.3065C61.965 27.4677 62.1259 27.6313 62.2847 27.7965C62.3173 27.8305 62.316 27.8844 62.2818 27.9168ZM46.435 20.275C46.4393 20.2284 46.4805 20.194 46.5271 20.1984C46.7628 20.2205 46.9986 20.2454 47.2343 20.2743C47.2684 20.2785 47.2924 20.3098 47.2878 20.3438L47.2855 20.3659C47.2793 20.4127 47.2365 20.4458 47.1896 20.4401C46.9637 20.4126 46.7377 20.3885 46.5117 20.3673C46.4651 20.3629 46.4307 20.3216 46.435 20.275ZM63.4214 29.1941C63.3855 29.2237 63.3323 29.2187 63.3024 29.183C63.1561 29.0084 63.0071 28.8356 62.8557 28.6647C62.8246 28.6296 62.8277 28.576 62.8628 28.5449C62.8977 28.5139 62.9511 28.517 62.9821 28.5519C63.1348 28.7243 63.285 28.8985 63.4326 29.0746C63.4628 29.1106 63.4577 29.1642 63.4214 29.1941ZM44.7259 20.1787C44.7269 20.132 44.7655 20.0949 44.8122 20.0961C45.0419 20.1018 45.2716 20.1107 45.5015 20.1228C45.5482 20.1252 45.5839 20.1651 45.5813 20.2118C45.5788 20.2586 45.5388 20.2944 45.492 20.2919C45.2641 20.2799 45.0362 20.2709 44.8086 20.2651C44.7619 20.264 44.7249 20.2253 44.7259 20.1787ZM64.4704 30.5455C64.4323 30.573 64.3791 30.5644 64.3515 30.5264C64.2177 30.3427 64.0811 30.1604 63.9421 29.9801C63.9134 29.9427 63.9204 29.889 63.9579 29.8604C63.9949 29.8322 64.0478 29.8391 64.0763 29.876C64.2165 30.0579 64.3545 30.2414 64.4894 30.4268C64.5171 30.4648 64.5085 30.518 64.4704 30.5455ZM43.0153 20.1995C43.0132 20.1527 43.0494 20.1132 43.0961 20.1112C43.3257 20.1013 43.5555 20.095 43.7857 20.0915C43.8318 20.0908 43.8698 20.1275 43.8706 20.1737C43.8709 20.2211 43.8329 20.2598 43.7855 20.2605C43.5581 20.2641 43.3309 20.2709 43.1041 20.2808C43.0571 20.2828 43.0173 20.2464 43.0153 20.1995ZM65.4243 31.9666C65.3844 31.9914 65.3319 31.9792 65.3069 31.9394C65.1861 31.7469 65.0626 31.5558 64.9364 31.3664C64.9103 31.3272 64.9208 31.2741 64.96 31.248C64.9981 31.2223 65.0497 31.2323 65.0752 31.2705C65.2031 31.462 65.3289 31.6547 65.4514 31.8494C65.4764 31.8892 65.4642 31.9417 65.4243 31.9666ZM41.3088 20.3387C41.3033 20.2921 41.3366 20.2499 41.3833 20.2447C41.6117 20.2192 41.8405 20.1972 42.0699 20.1779C42.1163 20.174 42.1569 20.2086 42.1607 20.255C42.1645 20.3014 42.1299 20.3421 42.0835 20.346C41.8561 20.3653 41.6292 20.3877 41.4027 20.4131C41.3563 20.4183 41.3143 20.3851 41.3088 20.3387ZM66.2784 33.4495C66.2371 33.4712 66.186 33.4554 66.164 33.4143C66.0564 33.2138 65.9461 33.0147 65.833 32.817C65.8095 32.776 65.8238 32.7237 65.8649 32.7005C65.9055 32.6775 65.9571 32.6916 65.9802 32.7321C66.0943 32.9315 66.2054 33.1323 66.3138 33.3346C66.336 33.376 66.3201 33.4277 66.2784 33.4495ZM39.6171 20.5931C39.6085 20.5471 39.6388 20.5028 39.6848 20.4944C39.9108 20.4533 40.1373 20.4151 40.3644 20.3802C40.4106 20.3731 40.4536 20.4047 40.4608 20.4508C40.468 20.4973 40.436 20.5406 40.3896 20.5478C40.1644 20.5824 39.9397 20.6201 39.7157 20.6608C39.6698 20.6692 39.6257 20.6389 39.6171 20.5931ZM67.0307 34.9867C66.9881 35.0055 66.9384 34.9864 66.9192 34.944C66.8255 34.7367 66.7288 34.5305 66.6295 34.3257C66.6088 34.2831 66.6265 34.2317 66.6691 34.2109C66.7116 34.1902 66.7629 34.2078 66.7834 34.2504C66.8833 34.4571 66.9793 34.6656 67.0735 34.8749C67.0927 34.9176 67.0735 34.9677 67.0307 34.9867ZM37.9458 20.9617C37.9342 20.9166 37.9614 20.8706 38.0065 20.8592C38.2291 20.8026 38.4523 20.7483 38.6765 20.6977C38.7224 20.6874 38.7678 20.7164 38.7779 20.7623C38.7881 20.8082 38.7591 20.8537 38.7132 20.864C38.4908 20.9138 38.2692 20.9666 38.0484 21.0224C38.0033 21.0338 37.9574 21.0067 37.9458 20.9617ZM67.6767 36.5713C67.6328 36.5876 67.584 36.565 67.5676 36.5211C67.4882 36.308 67.4059 36.0956 67.3207 35.8846C67.303 35.8407 67.3242 35.7906 67.3683 35.7729C67.4119 35.7555 67.4615 35.7765 67.4791 35.8201C67.5648 36.033 67.647 36.2473 67.7269 36.4624C67.7432 36.5063 67.7207 36.5551 67.6767 36.5713ZM36.3036 21.4429C36.2892 21.3986 36.3132 21.351 36.3575 21.3365C36.5759 21.265 36.795 21.1957 37.0153 21.1302C37.0601 21.1168 37.1072 21.1425 37.1204 21.1873C37.1335 21.2327 37.1075 21.28 37.0623 21.2934C36.8441 21.3583 36.6268 21.4264 36.4106 21.4971C36.3661 21.5117 36.3181 21.4874 36.3036 21.4429ZM68.2136 38.1963C68.1688 38.2092 68.122 38.1835 68.1087 38.1388C68.0438 37.9203 67.9756 37.7028 67.9047 37.4861C67.8902 37.4416 67.9144 37.3937 67.959 37.3792C68.0032 37.3647 68.0508 37.3888 68.0653 37.4331C68.1368 37.6515 68.2057 37.8708 68.2712 38.0912C68.2846 38.1362 68.2587 38.1833 68.2136 38.1963ZM34.6979 22.0343C34.68 21.9908 34.7008 21.941 34.7444 21.9234C34.9574 21.8377 35.1718 21.7555 35.387 21.6755C35.4307 21.6593 35.4792 21.6816 35.4955 21.7252C35.5118 21.7691 35.4894 21.8179 35.4455 21.8342C35.2321 21.9136 35.0194 21.9957 34.8082 22.0809C34.7648 22.0984 34.7155 22.0776 34.6979 22.0343ZM68.6397 39.8537C68.5936 39.8638 68.5482 39.8347 68.5379 39.7887C68.488 39.5669 68.435 39.3457 68.3792 39.1254C68.3675 39.0794 68.3953 39.0326 68.4414 39.021C68.4863 39.0098 68.5319 39.037 68.5433 39.0819C68.5999 39.3045 68.6542 39.5277 68.7047 39.7519C68.7151 39.798 68.6859 39.8437 68.6397 39.8537ZM33.1356 22.7334C33.1149 22.6912 33.1324 22.6402 33.1747 22.6198C33.3816 22.5197 33.5901 22.4232 33.7995 22.3289C33.842 22.3097 33.8918 22.3288 33.9108 22.3713C33.9298 22.4137 33.9108 22.4635 33.8684 22.4827C33.6608 22.5765 33.4546 22.6732 33.2495 22.7727C33.2072 22.7932 33.1562 22.7757 33.1356 22.7334ZM68.9512 41.5366C68.9046 41.5436 68.8612 41.5116 68.8541 41.4651C68.8172 41.2251 68.7768 40.9856 68.733 40.7471C68.729 40.7256 68.7433 40.7051 68.7647 40.7013L68.8095 40.6933C68.8098 40.6932 68.81 40.6929 68.8099 40.6926C68.8098 40.6923 68.81 40.692 68.8103 40.6919L68.8548 40.6841C68.8759 40.6804 68.896 40.6943 68.8999 40.7154C68.9441 40.9561 68.9851 41.1976 69.0224 41.4398C69.0295 41.4862 68.9976 41.5295 68.9512 41.5366ZM31.6249 23.5376C31.6017 23.4971 31.6157 23.4455 31.6562 23.4223C31.8557 23.3082 32.0568 23.197 32.2591 23.0885C32.3004 23.0664 32.3517 23.0822 32.3736 23.1235C32.3954 23.1648 32.3797 23.2159 32.3386 23.2379C32.138 23.3456 31.9387 23.456 31.7409 23.5692C31.7001 23.5925 31.6481 23.5784 31.6249 23.5376ZM30.1728 24.4429C30.1468 24.4043 30.1571 24.3519 30.1959 24.326C30.3873 24.1983 30.5801 24.073 30.7747 23.9507C30.8144 23.9258 30.8668 23.9381 30.8915 23.978C30.9161 24.0177 30.9039 24.0698 30.8643 24.0946C30.6713 24.2157 30.4797 24.3395 30.2899 24.4661C30.2511 24.4919 30.1988 24.4816 30.1728 24.4429ZM69.147 43.2365C69.1005 43.2401 69.0598 43.2054 69.0558 43.1589C69.0366 42.9318 69.0142 42.7052 68.9888 42.479C68.9836 42.4323 69.0172 42.3901 69.0639 42.3849C69.1104 42.3797 69.1523 42.413 69.1575 42.4595C69.183 42.6876 69.2053 42.9162 69.2246 43.1452C69.2286 43.1919 69.1937 43.2328 69.147 43.2365ZM69.2274 44.9458C69.1805 44.9463 69.1421 44.9087 69.1414 44.8618C69.1375 44.618 69.13 44.3744 69.1189 44.1312C69.118 44.111 69.1338 44.0939 69.154 44.0932L69.2026 44.0914C69.2029 44.0914 69.2031 44.0911 69.203 44.0908C69.2029 44.0906 69.2031 44.0903 69.2034 44.0902L69.2521 44.0887C69.2718 44.0881 69.2884 44.1034 69.2893 44.1232C69.3003 44.369 69.3064 44.6151 69.3101 44.8616C69.3107 44.9078 69.2736 44.9456 69.2274 44.9458ZM28.7849 25.4444C28.7565 25.4076 28.7632 25.3547 28.8 25.3264C28.9823 25.1859 29.166 25.0478 29.3516 24.9126C29.3893 24.8851 29.442 24.8934 29.4697 24.9309C29.4973 24.9693 29.4886 25.0229 29.4503 25.0507C29.2666 25.1844 29.0845 25.3206 28.9043 25.4594C28.8671 25.488 28.8138 25.4814 28.7849 25.4444ZM69.1903 46.6571C69.1429 46.6543 69.1067 46.6136 69.1093 46.5662C69.1213 46.339 69.1302 46.1118 69.1359 45.8849C69.1371 45.8377 69.1763 45.8003 69.2235 45.8015C69.2705 45.8026 69.3077 45.8416 69.3065 45.8886C69.3006 46.118 69.2913 46.3476 69.2791 46.5773C69.2766 46.6239 69.2368 46.6595 69.1903 46.6571ZM27.4698 26.5394C27.4386 26.5043 27.4416 26.4505 27.4768 26.4194C27.649 26.2669 27.8231 26.117 27.9991 25.9696C28.0349 25.9396 28.0882 25.9446 28.1181 25.9805C28.1479 26.0164 28.143 26.0697 28.1072 26.0996C27.9326 26.246 27.7597 26.3951 27.5887 26.5465C27.5539 26.5774 27.5007 26.5742 27.4698 26.5394ZM69.036 48.361C68.9887 48.3547 68.9554 48.3114 68.9612 48.264C68.9887 48.0387 69.0132 47.8133 69.0345 47.5878C69.0389 47.5409 69.0805 47.5064 69.1274 47.5108C69.1742 47.5151 69.2086 47.5565 69.2042 47.6033C69.1828 47.8313 69.1588 48.0594 69.1311 48.2874C69.1254 48.3342 69.0827 48.3672 69.036 48.361ZM26.2326 27.7212C26.1988 27.6885 26.198 27.6345 26.231 27.6009C26.3922 27.4372 26.5558 27.2763 26.721 27.1175C26.7547 27.0851 26.8084 27.0863 26.8407 27.1201C26.8732 27.1539 26.872 27.2077 26.8382 27.2401C26.6744 27.3976 26.5123 27.5574 26.3525 27.7197C26.3197 27.7531 26.2662 27.7538 26.2326 27.7212ZM68.7633 50.0511C68.7173 50.042 68.6874 49.9974 68.6963 49.9513C68.7395 49.7271 68.7795 49.5026 68.8164 49.278C68.8239 49.2319 68.8673 49.2005 68.9135 49.2079C68.9596 49.2153 68.9911 49.2587 68.9835 49.3049C68.9464 49.5314 68.9067 49.7579 68.8632 49.9841C68.8543 50.0303 68.8095 50.0603 68.7633 50.0511ZM25.0795 28.9867C25.0438 28.9564 25.0395 28.9029 25.0699 28.8674C25.22 28.6923 25.3726 28.52 25.527 28.3497C25.5583 28.3152 25.6116 28.3128 25.646 28.3443C25.6803 28.3756 25.6827 28.4288 25.6515 28.4633C25.4986 28.6322 25.3476 28.8035 25.1989 28.9771C25.1685 29.0126 25.1151 29.0169 25.0795 28.9867ZM68.3758 51.7169C68.3308 51.7047 68.3042 51.6583 68.3162 51.6133C68.3746 51.3927 68.4297 51.1717 68.4818 50.9505C68.4926 50.9046 68.5386 50.8761 68.5845 50.8869C68.6302 50.8977 68.6586 50.9434 68.6478 50.9891C68.595 51.2121 68.5387 51.4348 68.4796 51.6572C68.4676 51.7025 68.421 51.7292 68.3758 51.7169ZM24.0171 30.327C23.9793 30.2993 23.9713 30.2462 23.9992 30.2087C24.1367 30.0238 24.2764 29.8412 24.4184 29.6609C24.4472 29.6243 24.5002 29.6182 24.5367 29.6471C24.5733 29.676 24.5795 29.7291 24.5506 29.7658C24.4099 29.9445 24.2716 30.1258 24.1353 30.3092C24.1075 30.3466 24.0547 30.3546 24.0171 30.327ZM23.0479 31.7369C23.0086 31.7123 22.9969 31.6604 23.0219 31.6214C23.1459 31.4277 23.2714 31.2356 23.4001 31.0463C23.4267 31.0072 23.4798 30.9972 23.5189 31.0238C23.5578 31.0507 23.5675 31.104 23.5409 31.143C23.4134 31.3301 23.2883 31.5195 23.1654 31.7109C23.14 31.7505 23.0875 31.7621 23.0479 31.7369ZM67.8753 53.3532C67.8313 53.3379 67.8081 53.2899 67.823 53.2458C67.8962 53.0304 67.966 52.8143 68.0329 52.598C68.047 52.5526 68.0952 52.5271 68.1405 52.5413C68.1856 52.5554 68.2109 52.6032 68.1969 52.6483C68.1291 52.8663 68.0572 53.0837 67.983 53.3008C67.9679 53.3452 67.9196 53.3687 67.8753 53.3532ZM67.2652 54.9539C67.2217 54.9354 67.2013 54.8852 67.2195 54.8415C67.3075 54.6306 67.3924 54.4188 67.4743 54.2068C67.4912 54.163 67.5404 54.1411 67.5842 54.1581C67.6276 54.175 67.6493 54.2238 67.6326 54.2673C67.5503 54.4813 67.4661 54.6952 67.3776 54.9081C67.3593 54.9519 67.3089 54.9724 67.2652 54.9539ZM22.1764 33.2124C22.1347 33.19 22.1192 33.1379 22.1421 33.0964C22.2535 32.8943 22.3681 32.6947 22.4844 32.4967C22.508 32.4565 22.5597 32.4431 22.5999 32.4666C22.6405 32.4903 22.654 32.5424 22.6303 32.5829C22.5151 32.7792 22.4022 32.9777 22.2919 33.1782C22.2692 33.2193 22.2177 33.2347 22.1764 33.2124ZM66.8138 56.1609C66.7636 56.265 66.712 56.3682 66.6602 56.4711C66.6392 56.5129 66.5884 56.5298 66.5466 56.5091C66.5045 56.4878 66.4876 56.4365 66.5086 56.3943C66.5595 56.2922 66.6097 56.1895 66.6594 56.0864C66.709 55.9837 66.7579 55.8807 66.8061 55.7775C66.8261 55.7345 66.8773 55.7159 66.9202 55.7361C66.9622 55.7553 66.9806 55.8049 66.9612 55.8468C66.9128 55.9516 66.8641 56.0566 66.8138 56.1609ZM21.6668 34.0065C21.6878 33.9649 21.7385 33.9481 21.7802 33.969C21.8219 33.9899 21.8388 34.0407 21.8179 34.0825C21.7667 34.1847 21.7159 34.2874 21.6661 34.3906C21.6166 34.4934 21.5681 34.5966 21.5202 34.6998C21.5001 34.743 21.449 34.7619 21.4057 34.7421C21.3642 34.7226 21.3463 34.6733 21.3654 34.6317C21.4137 34.5265 21.4621 34.4211 21.5125 34.3165C21.5627 34.2124 21.6149 34.1094 21.6668 34.0065ZM65.7257 58.0104C65.6856 57.9865 65.6724 57.9347 65.696 57.8944C65.8047 57.7091 65.9114 57.5219 66.0159 57.3328C66.0488 57.2732 66.1236 57.2512 66.1834 57.2837L66.2247 57.3062C66.225 57.3064 66.2253 57.3066 66.2254 57.307C66.2255 57.3073 66.2255 57.3078 66.2253 57.3081C66.1012 57.5353 65.9725 57.759 65.842 57.9807C65.8182 58.0212 65.766 58.0345 65.7257 58.0104ZM20.7429 36.3196C20.6989 36.3031 20.6768 36.2539 20.6937 36.2101C20.7761 35.996 20.8609 35.7822 20.9496 35.5693C20.9678 35.5257 21.0179 35.5053 21.0614 35.5237C21.1048 35.5421 21.1251 35.5921 21.1069 35.6356C21.0188 35.8467 20.934 36.0584 20.8521 36.2706C20.8353 36.3142 20.7866 36.3361 20.7429 36.3196ZM64.8068 59.4529C64.7679 59.4262 64.7581 59.3731 64.7846 59.3341C64.9124 59.1467 65.0382 58.9571 65.1614 58.7654C65.1867 58.7261 65.239 58.7145 65.2784 58.7397C65.3178 58.7648 65.3294 58.8171 65.3042 58.8564C65.1801 59.0499 65.0542 59.2416 64.9254 59.4308C64.8989 59.4698 64.8457 59.4796 64.8068 59.4529ZM20.186 37.9367C20.1411 37.923 20.1158 37.8754 20.1297 37.8306C20.1976 37.6119 20.2692 37.394 20.3434 37.1763C20.3584 37.132 20.4066 37.1085 20.4508 37.1237C20.495 37.1389 20.5185 37.187 20.5035 37.2313C20.43 37.4471 20.3594 37.6636 20.2923 37.8803C20.2784 37.9251 20.2309 37.9504 20.186 37.9367ZM63.7899 60.8305C63.7528 60.8008 63.7467 60.7468 63.7761 60.7096C63.9163 60.5316 64.0545 60.3513 64.1903 60.1689C64.2186 60.1308 64.2724 60.123 64.3103 60.1515C64.3474 60.1786 64.3554 60.2307 64.328 60.2675C64.1905 60.4527 64.051 60.6359 63.909 60.8165C63.88 60.8533 63.8266 60.8595 63.7899 60.8305ZM19.7409 39.59C19.6962 39.5797 19.6683 39.5351 19.6788 39.4904C19.7339 39.2569 19.7925 39.0237 19.8545 38.7908C19.8622 38.7617 19.8921 38.7445 19.9212 38.7521L19.9487 38.7594C19.9491 38.7595 19.9493 38.7597 19.9495 38.7601C19.9496 38.7604 19.9499 38.7607 19.9502 38.7608L19.9782 38.768C20.008 38.7757 20.0257 38.8061 20.0178 38.8358C19.9566 39.0653 19.8985 39.2953 19.8442 39.5255C19.8333 39.5717 19.7872 39.6005 19.7409 39.59ZM62.6812 62.1337C62.6464 62.102 62.6439 62.0482 62.6755 62.0134C62.828 61.845 62.9785 61.6741 63.1269 61.5009C63.1575 61.4652 63.2114 61.4609 63.2472 61.4915C63.2829 61.522 63.2872 61.5756 63.2566 61.6113C63.107 61.786 62.9551 61.9581 62.8012 62.128C62.7697 62.1628 62.7159 62.1653 62.6812 62.1337ZM19.4128 41.2696C19.3667 41.2622 19.3352 41.2187 19.3428 41.1726C19.3799 40.9461 19.4201 40.7198 19.4636 40.4937C19.4724 40.4478 19.5168 40.4179 19.5627 40.4267C19.6088 40.4356 19.6389 40.4803 19.63 40.5263C19.5868 40.7505 19.5468 40.975 19.5099 41.1994C19.5024 41.2456 19.459 41.277 19.4128 41.2696ZM61.4856 63.3577C61.4531 63.3236 61.4544 63.2697 61.4883 63.2371C61.6516 63.0798 61.8129 62.9199 61.9722 62.7578C62.0056 62.7238 62.0602 62.7232 62.0942 62.7565C62.128 62.7898 62.1286 62.8442 62.0953 62.878C61.9344 63.0414 61.7711 63.202 61.6062 63.3605C61.5722 63.3932 61.5181 63.3919 61.4856 63.3577ZM19.1996 42.9673C19.1528 42.9632 19.1181 42.9218 19.1225 42.875C19.1439 42.6469 19.1679 42.4187 19.1956 42.1906C19.2013 42.144 19.2437 42.1109 19.2902 42.1165C19.3372 42.1222 19.3705 42.1649 19.3648 42.2118C19.3372 42.4379 19.313 42.6642 19.2917 42.8904C19.2873 42.937 19.2462 42.9714 19.1996 42.9673ZM60.208 64.4973C60.1779 64.461 60.1828 64.4072 60.219 64.3769C60.3931 64.2309 60.5656 64.0822 60.7361 63.9312C60.7714 63.8999 60.8253 63.903 60.8567 63.9381C60.8883 63.9733 60.8852 64.0274 60.8499 64.0588C60.6779 64.2111 60.5041 64.361 60.3283 64.5083C60.2921 64.5386 60.2382 64.5336 60.208 64.4973ZM19.1033 44.6764C19.0563 44.6756 19.019 44.6368 19.0201 44.5898C19.026 44.3601 19.035 44.1303 19.0472 43.9003C19.0497 43.8537 19.0896 43.818 19.1362 43.8205C19.183 43.8231 19.2188 43.8631 19.2163 43.9099C19.2043 44.1378 19.1953 44.3658 19.1896 44.5935C19.1884 44.6401 19.1499 44.6771 19.1033 44.6764ZM58.9759 65.5643C58.9379 65.5924 58.8843 65.5841 58.8565 65.5459C58.829 65.5078 58.8375 65.4546 58.8755 65.427C59.0594 65.2932 59.2418 65.1564 59.4223 65.0174C59.4594 64.9887 59.5128 64.9956 59.5414 65.0328C59.5698 65.0697 59.563 65.1227 59.5262 65.1514C59.4721 65.1937 59.4179 65.2361 59.3631 65.2775L58.9759 65.5643ZM19.1241 46.387C19.0771 46.3892 19.0372 46.3529 19.0352 46.3059C19.0254 46.0768 19.0191 45.8474 19.0155 45.6177C19.0148 45.5711 19.0519 45.5328 19.0985 45.5318C19.1457 45.5308 19.1845 45.5684 19.1853 45.6156C19.1889 45.8432 19.1954 46.0709 19.2052 46.298C19.2072 46.3449 19.171 46.3847 19.1241 46.387ZM57.4353 66.4998C57.4104 66.4599 57.4227 66.4075 57.4625 66.3825C57.6553 66.2615 57.8466 66.1378 58.0363 66.0115C58.0751 65.9856 58.1276 65.9958 58.1537 66.0345C58.18 66.0733 58.1697 66.1261 58.1307 66.1521C57.9395 66.2797 57.7469 66.4048 57.5525 66.527C57.5126 66.552 57.4601 66.5398 57.4353 66.4998ZM19.2626 48.0929C19.2159 48.0983 19.1736 48.0648 19.1684 48.0181C19.1416 47.7773 19.1191 47.5359 19.0992 47.2942C19.0971 47.2686 19.116 47.2461 19.1416 47.2438L19.1774 47.2405C19.1777 47.2405 19.178 47.2407 19.1781 47.241C19.1783 47.2413 19.1786 47.2415 19.1789 47.2415L19.2155 47.2384C19.242 47.2362 19.2652 47.2559 19.2674 47.2824C19.2873 47.5215 19.3107 47.7604 19.3375 47.9986C19.3427 48.0453 19.3093 48.0875 19.2626 48.0929ZM55.9528 67.355C55.9309 67.3131 55.9469 67.2614 55.9885 67.239C56.1887 67.1317 56.3875 67.0215 56.5848 66.9086C56.6259 66.8851 56.6783 66.8993 56.7017 66.9405C56.7249 66.9813 56.7108 67.0332 56.67 67.0565C56.4707 67.1705 56.2699 67.2815 56.0677 67.3899C56.0263 67.4121 55.9749 67.3964 55.9528 67.355ZM19.5176 49.7851C19.4714 49.794 19.4268 49.7635 19.4184 49.7172C19.375 49.4786 19.3348 49.2394 19.2983 48.9995C19.2945 48.9747 19.3114 48.9514 19.3361 48.9473L19.3738 48.941C19.3741 48.9409 19.3744 48.9411 19.3745 48.9414C19.3746 48.9417 19.375 48.9419 19.3753 48.9419L19.4131 48.9357C19.4386 48.9315 19.4625 48.9489 19.4664 48.9744C19.5026 49.2124 19.5422 49.4497 19.5853 49.6863C19.5936 49.7322 19.5635 49.7763 19.5176 49.7851ZM54.4154 68.1067C54.3961 68.0638 54.4153 68.0133 54.4582 67.9939C54.6395 67.9121 54.8201 67.8282 54.9995 67.742C55.0847 67.7011 55.1871 67.7361 55.2288 67.8208C55.229 67.8215 55.2287 67.8222 55.2281 67.8225C54.9966 67.9357 54.7627 68.0437 54.5278 68.1494C54.485 68.1687 54.4347 68.1496 54.4154 68.1067ZM19.8862 51.4563C19.8409 51.4682 19.7946 51.4409 19.7831 51.3955C19.7265 51.1731 19.6718 50.9502 19.6212 50.7262C19.6108 50.6801 19.6399 50.6344 19.6861 50.6241C19.7324 50.6139 19.7782 50.6431 19.7885 50.6893C19.8383 50.9114 19.8911 51.1329 19.9469 51.3535C19.9583 51.3986 19.9312 51.4446 19.8862 51.4563ZM52.8305 68.7523C52.8143 68.7083 52.8368 68.6595 52.8807 68.6432C53.0941 68.5637 53.3066 68.4813 53.5178 68.3961C53.5615 68.3784 53.6113 68.3995 53.629 68.4432C53.6466 68.4867 53.6257 68.5364 53.5821 68.5539C53.369 68.6398 53.1547 68.7224 52.9394 68.8024C52.8955 68.8188 52.8468 68.7962 52.8305 68.7523ZM20.3674 53.0985C20.323 53.1132 20.275 53.0891 20.2604 53.0446C20.1889 52.8265 20.1198 52.6076 20.0543 52.3877C20.0409 52.3426 20.0666 52.2953 20.1117 52.2818C20.1571 52.2681 20.2049 52.2941 20.2184 52.3396C20.2831 52.5576 20.3509 52.7751 20.4216 52.9913C20.4361 53.0359 20.412 53.0839 20.3674 53.0985ZM51.2057 69.2897C51.1923 69.2445 51.2182 69.197 51.2634 69.1836C51.4817 69.1188 51.6993 69.051 51.9157 68.9803C51.9603 68.9657 52.0083 68.9899 52.023 69.0344C52.0376 69.0789 52.0135 69.1269 51.969 69.1415C51.7507 69.2129 51.5316 69.2817 51.3114 69.3472C51.2663 69.3606 51.219 69.3348 51.2057 69.2897ZM20.9472 54.7086C20.9106 54.7241 20.8683 54.7067 20.8535 54.6699C20.7658 54.4527 20.6816 54.2343 20.6 54.0148C20.5838 53.9712 20.606 53.9227 20.6497 53.9064C20.6935 53.89 20.7423 53.9124 20.7587 53.9563C20.8366 54.166 20.9171 54.3747 21.0007 54.5822C21.0207 54.6319 20.9968 54.6885 20.9472 54.7086ZM49.5664 69.799C49.5462 69.7067 49.6046 69.6155 49.6967 69.5945C49.8908 69.5502 50.0843 69.5034 50.2772 69.4546C50.3228 69.443 50.3693 69.4705 50.3809 69.5162C50.3925 69.5617 50.365 69.608 50.3195 69.6196C50.0699 69.6831 49.8196 69.7443 49.5679 69.7998C49.5673 69.8 49.5666 69.7996 49.5664 69.799ZM21.6579 56.2665C21.6155 56.2874 21.5642 56.2699 21.5436 56.2273C21.4436 56.0207 21.3472 55.8124 21.253 55.6032C21.2338 55.5606 21.2527 55.5106 21.2952 55.4913C21.3381 55.4718 21.3886 55.4909 21.4079 55.5338C21.5015 55.7411 21.5978 55.9475 21.6971 56.1522C21.7176 56.1946 21.7002 56.2457 21.6579 56.2665ZM47.8657 70.0273C47.8584 69.9805 47.8906 69.9367 47.9373 69.9295C48.1618 69.895 48.3857 69.8575 48.609 69.8169C48.6558 69.8084 48.7007 69.8393 48.7095 69.886C48.7182 69.9317 48.6881 69.9757 48.6423 69.984C48.4164 70.0252 48.1899 70.0634 47.9627 70.0983C47.9163 70.1055 47.873 70.0736 47.8657 70.0273ZM22.4621 57.7773C22.4214 57.8006 22.3694 57.7866 22.3461 57.7459C22.2321 57.5466 22.121 57.3457 22.0126 57.1436C21.9905 57.1022 22.0062 57.0508 22.0476 57.0288C22.089 57.0067 22.1405 57.0224 22.1626 57.0637C22.2701 57.2641 22.3805 57.4633 22.4935 57.6609C22.5169 57.7017 22.5029 57.7538 22.4621 57.7773ZM46.1654 70.2226C46.1617 70.176 46.1964 70.1353 46.2429 70.1314C46.47 70.1122 46.6968 70.0898 46.923 70.0644C46.9697 70.0592 47.0119 70.0926 47.0173 70.1393C47.0227 70.186 46.9893 70.2283 46.9425 70.2335C46.7144 70.259 46.4857 70.281 46.2566 70.3002C46.21 70.3041 46.1691 70.2693 46.1654 70.2226ZM23.3673 59.2293C23.3285 59.2555 23.2758 59.2452 23.2498 59.2063C23.1223 59.015 22.9974 58.8223 22.8753 58.6279C22.8505 58.5883 22.8625 58.5361 22.9021 58.5112C22.9419 58.4862 22.9944 58.4983 23.0194 58.5381C23.1404 58.7309 23.264 58.9222 23.3904 59.1119C23.4163 59.1507 23.406 59.2032 23.3673 59.2293ZM44.4558 70.3028C44.4551 70.2559 44.4926 70.2173 44.5395 70.2166C44.7671 70.213 44.9948 70.2065 45.2218 70.1967C45.2691 70.1946 45.3091 70.2312 45.3112 70.2784C45.3133 70.3255 45.2769 70.3654 45.2298 70.3674C45.0007 70.3771 44.7713 70.3826 44.5416 70.386C44.4949 70.3867 44.4566 70.3494 44.4558 70.3028ZM24.3381 60.6402C24.3189 60.6558 24.2905 60.6526 24.2753 60.6329C24.1165 60.4278 23.9601 60.2213 23.8081 60.0117C23.7965 59.9957 23.8 59.9734 23.8158 59.9616L23.8548 59.9325C23.8551 59.9323 23.8554 59.9324 23.8555 59.9327C23.8556 59.933 23.8559 59.9331 23.8562 59.9329L23.8954 59.904C23.9116 59.892 23.9346 59.8956 23.9464 59.9119C24.0817 60.0987 24.2197 60.2838 24.3604 60.4671C24.4018 60.5211 24.392 60.5985 24.3381 60.6402ZM42.745 70.2653C42.7477 70.2183 42.788 70.1823 42.8351 70.1848C43.0625 70.1968 43.29 70.2058 43.5172 70.2115C43.5644 70.2127 43.6018 70.2517 43.6008 70.2989C43.5998 70.3462 43.5607 70.3837 43.5135 70.3825C43.2843 70.3767 43.0549 70.3676 42.8255 70.3555C42.7783 70.353 42.7422 70.3125 42.745 70.2653ZM25.4635 61.9328C25.4286 61.9637 25.3752 61.9605 25.3443 61.9257C25.1917 61.7535 25.0415 61.5797 24.894 61.4038C24.8638 61.3678 24.8686 61.3142 24.9047 61.284C24.9409 61.2537 24.9948 61.2585 25.0251 61.2947C25.171 61.4687 25.3194 61.6409 25.4703 61.8112C25.5018 61.8468 25.4988 61.9011 25.4635 61.9328ZM41.041 70.1113C41.0468 70.0641 41.0899 70.0306 41.1371 70.0364C41.3628 70.064 41.5885 70.0887 41.8143 70.1101C41.8611 70.1145 41.8957 70.1559 41.8915 70.2028C41.8873 70.2498 41.8458 70.2845 41.7988 70.2801C41.5711 70.2587 41.3433 70.2348 41.1157 70.2071C41.0686 70.2014 41.0352 70.1584 41.041 70.1113ZM26.6453 63.17C26.6126 63.2039 26.5585 63.2047 26.525 63.1716C26.3613 63.0105 26.2005 62.8469 26.0418 62.6818C26.0092 62.6479 26.0104 62.5941 26.0442 62.5616C26.0782 62.5289 26.1323 62.5301 26.165 62.5641C26.322 62.7272 26.4815 62.8883 26.6434 63.0475C26.6774 63.0809 26.6783 63.1356 26.6453 63.17ZM39.351 69.8395C39.36 69.7932 39.4048 69.763 39.4511 69.7719C39.6749 69.8151 39.8991 69.855 40.1234 69.8919C40.1697 69.8995 40.2013 69.9431 40.1938 69.9895C40.1863 70.0359 40.1427 70.0674 40.0964 70.0598C39.8702 70.0227 39.6441 69.9826 39.4183 69.9391C39.3721 69.9302 39.3421 69.8856 39.351 69.8395ZM27.911 64.3227C27.8806 64.3586 27.8268 64.363 27.7911 64.3324C27.6162 64.1824 27.4441 64.03 27.274 63.8758C27.2394 63.8444 27.2369 63.7908 27.2684 63.7563C27.2999 63.7218 27.3534 63.7193 27.3881 63.7507C27.5568 63.9035 27.7279 64.0542 27.9013 64.2028C27.9369 64.2333 27.9413 64.2869 27.911 64.3227ZM37.6815 69.4635C37.6952 69.4117 37.7484 69.3809 37.8001 69.3946C38.0162 69.4517 38.2328 69.5057 38.4495 69.5568C38.4961 69.5678 38.5252 69.6143 38.5145 69.6609C38.5039 69.7061 38.4588 69.7342 38.4137 69.7236C38.1863 69.6698 37.9593 69.6123 37.7325 69.552C37.694 69.5417 37.6711 69.502 37.6815 69.4635ZM29.2434 65.3946C29.2202 65.4268 29.1752 65.4339 29.1433 65.4102C28.9551 65.2706 28.7689 65.1289 28.5855 64.9846C28.5486 64.9556 28.5423 64.9022 28.5714 64.8653C28.6005 64.8282 28.6543 64.8219 28.6913 64.8511C28.8665 64.9891 29.0439 65.1252 29.2234 65.2589C29.2664 65.2909 29.2754 65.3517 29.2434 65.3946ZM36.0481 68.9511C36.0633 68.9069 36.1114 68.8834 36.1557 68.8984C36.3715 68.9717 36.588 69.0417 36.8046 69.1087C36.8497 69.1227 36.8751 69.1704 36.8613 69.2156C36.8475 69.2607 36.7997 69.2861 36.7547 69.2721C36.5362 69.2042 36.3183 69.1326 36.1007 69.0585C36.0565 69.0434 36.033 68.9953 36.0481 68.9511ZM30.662 66.3535C30.637 66.3931 30.5846 66.4048 30.5451 66.3795C30.3358 66.2454 30.1284 66.1096 29.9243 65.9699C29.9113 65.9611 29.9079 65.9435 29.9166 65.9304L29.9482 65.8827C29.9483 65.8825 29.9487 65.8825 29.9487 65.8828C29.9488 65.883 29.9491 65.883 29.9493 65.8828L29.981 65.8359C29.99 65.8227 30.008 65.8193 30.0211 65.8283C30.2236 65.9671 30.4285 66.1035 30.6361 66.2369C30.6753 66.2621 30.6869 66.3141 30.662 66.3535ZM34.415 68.4197C34.4149 68.4194 34.4149 68.419 34.4151 68.4187L34.4334 68.3754C34.4599 68.3127 34.5322 68.2834 34.595 68.3095C34.7945 68.3924 34.9946 68.4724 35.195 68.5498C35.2386 68.5666 35.2605 68.6153 35.2441 68.659C35.2275 68.7029 35.1783 68.725 35.1345 68.7082C34.8944 68.6159 34.6544 68.5211 34.4158 68.4206C34.4155 68.4204 34.4152 68.4201 34.415 68.4197ZM32.1361 67.226C32.1134 67.2677 32.0612 67.2831 32.0197 67.2602C31.8179 67.1487 31.6188 67.0338 31.4211 66.9175C31.381 66.8939 31.3675 66.8422 31.391 66.802C31.4147 66.7614 31.4668 66.7479 31.5073 66.7716C31.7034 66.8866 31.9017 66.9994 32.1019 67.1096C32.1434 67.1324 32.1587 67.1844 32.1361 67.226ZM32.931 67.7359C32.8892 67.7149 32.8723 67.6639 32.8932 67.6221C32.9142 67.5801 32.9653 67.5632 33.0073 67.5841C33.1095 67.635 33.2123 67.6852 33.3154 67.735C33.4182 67.7845 33.5212 67.8335 33.6243 67.8816C33.6674 67.9017 33.6864 67.9529 33.6665 67.9962C33.6469 68.038 33.5971 68.0562 33.5551 68.0368C33.4502 67.9884 33.3453 67.9397 33.241 67.8893C33.137 67.8392 33.0338 67.7876 32.931 67.7359Z" fill="white"/>
<path d="M44.151 79.9983V80.1696L43.8053 80.1649C43.759 80.1642 43.722 80.1263 43.7224 80.08C43.7229 80.0335 43.761 79.9963 43.8075 79.9967C43.9218 79.9978 44.0365 79.9983 44.151 79.9983ZM44.5796 80.0799C44.5801 80.1262 44.543 80.1642 44.4967 80.165C44.3816 80.1669 44.2663 80.1696 44.151 80.1696V79.9983C44.2656 79.9983 44.3802 79.9978 44.4946 79.9967C44.5411 79.9963 44.5791 80.0335 44.5796 80.0799ZM42.8132 79.9727C42.8456 79.974 42.8709 80.0012 42.8696 80.0337L42.8686 80.0587C42.8686 80.0591 42.8687 80.0594 42.869 80.0597C42.8693 80.06 42.8694 80.0603 42.8694 80.0607L42.8684 80.0854C42.8671 80.1172 42.8404 80.1419 42.8086 80.1407C42.5704 80.1316 42.3328 80.1199 42.0958 80.106C42.0496 80.1033 42.0145 80.0637 42.0173 80.0176C42.02 79.9714 42.0597 79.9362 42.1059 79.9389C42.341 79.9526 42.5768 79.9638 42.8132 79.9727ZM46.2856 80.0192C46.2879 80.0645 46.2533 80.1033 46.2079 80.1059C45.9787 80.1193 45.749 80.1308 45.5186 80.1397C45.473 80.1415 45.4348 80.1057 45.4334 80.0601C45.4316 80.0131 45.4683 79.9735 45.5153 79.9717C45.7422 79.963 45.9687 79.9521 46.1945 79.939C46.2417 79.9363 46.2824 79.972 46.2856 80.0192ZM41.0891 79.8649C41.1352 79.869 41.1695 79.9095 41.1655 79.9557C41.1616 80.0018 41.121 80.0361 41.0749 80.032C40.8463 80.0121 40.6184 79.99 40.3911 79.9656C40.3448 79.9607 40.3114 79.9189 40.3168 79.8725C40.322 79.8266 40.3635 79.7935 40.4095 79.7985C40.6354 79.8227 40.8619 79.845 41.0891 79.8649ZM47.9854 79.8734C47.9902 79.9194 47.9569 79.9606 47.911 79.9655C47.6831 79.99 47.4546 80.0122 47.2254 80.0322C47.1803 80.0361 47.1406 80.0025 47.1369 79.9574C47.1332 79.9102 47.1683 79.8689 47.2154 79.8648C47.4417 79.8449 47.6676 79.8227 47.8926 79.7985C47.9389 79.7936 47.9805 79.8271 47.9854 79.8734ZM39.4241 79.6791C39.4549 79.6833 39.4765 79.7117 39.4722 79.7425L39.4684 79.7696C39.4683 79.77 39.4685 79.7704 39.4687 79.7706C39.469 79.7709 39.4691 79.7713 39.4691 79.7716L39.4652 79.7985C39.4609 79.8286 39.4331 79.8497 39.403 79.8456C39.1664 79.8134 38.9306 79.7793 38.6956 79.7425C38.6494 79.7353 38.618 79.6919 38.6253 79.6457C38.6327 79.5996 38.6761 79.5682 38.7222 79.5754C38.9554 79.6122 39.1894 79.647 39.4241 79.6791ZM49.6767 79.6457C49.6841 79.6919 49.6526 79.7353 49.6065 79.7425C49.3805 79.7779 49.1538 79.8108 48.9264 79.8418C48.8813 79.848 48.8397 79.8162 48.8337 79.7711C48.8273 79.7245 48.8599 79.6816 48.9064 79.6752C49.1316 79.6442 49.3561 79.6107 49.5798 79.5754C49.6259 79.5682 49.6693 79.5996 49.6767 79.6457ZM37.7159 79.4022C37.7618 79.4108 37.7922 79.4549 37.7836 79.5009C37.7751 79.5467 37.731 79.577 37.6851 79.5684C37.4601 79.5262 37.2359 79.4816 37.0124 79.4351C36.9666 79.4255 36.9375 79.3805 36.9475 79.3348C36.9573 79.2896 37.0018 79.2608 37.0471 79.2702C37.2693 79.3164 37.4922 79.3603 37.7159 79.4022ZM51.3547 79.3356C51.3642 79.3809 51.3351 79.4254 51.2898 79.4349C51.0658 79.4815 50.8412 79.5263 50.6157 79.5687C50.5705 79.5771 50.5271 79.5472 50.5188 79.502C50.5105 79.4553 50.5414 79.4107 50.588 79.402C50.8111 79.3602 51.0335 79.3164 51.2551 79.2703C51.3006 79.2609 51.3453 79.29 51.3547 79.3356ZM36.0504 79.0471C36.096 79.058 36.1242 79.1039 36.1131 79.1495L36.104 79.1921C36.0984 79.2135 36.0768 79.2265 36.0553 79.2214C35.8183 79.165 35.5821 79.1068 35.347 79.0458C35.3014 79.0339 35.2743 78.9872 35.2866 78.9417C35.2988 78.8967 35.345 78.87 35.3901 78.8817C35.6094 78.9389 35.8294 78.9941 36.0504 79.0471ZM53.0156 78.9425C53.0274 78.9876 53.0004 79.0338 52.9552 79.0455C52.7343 79.1029 52.5124 79.1579 52.2898 79.2111C52.2446 79.2219 52.1993 79.194 52.1885 79.1489C52.1777 79.1036 52.2057 79.0581 52.251 79.0472C52.4722 78.9943 52.6927 78.939 52.9122 78.8819C52.9575 78.8701 53.0038 78.8972 53.0156 78.9425ZM34.4355 78.6192C34.4636 78.6274 34.4797 78.6569 34.4713 78.6849L34.4625 78.7145C34.4624 78.7148 34.4625 78.7152 34.4627 78.7155C34.463 78.7157 34.4631 78.7161 34.463 78.7164L34.454 78.7461C34.4456 78.7738 34.4165 78.7896 34.3888 78.7815C34.1589 78.7147 33.93 78.6458 33.7021 78.5743C33.6573 78.5603 33.6327 78.5125 33.647 78.4678C33.6613 78.4234 33.7087 78.3989 33.7532 78.4129C33.9796 78.4839 34.2071 78.5527 34.4355 78.6192ZM54.6553 78.4686C54.6691 78.5129 54.6444 78.5601 54.6001 78.574C54.3821 78.6424 54.1632 78.7084 53.9434 78.7725C53.8986 78.7856 53.8518 78.7598 53.8389 78.715C53.826 78.6702 53.8517 78.6235 53.8964 78.6105C54.1148 78.5467 54.3326 78.481 54.5491 78.413C54.5938 78.399 54.6414 78.4239 54.6553 78.4686ZM32.7834 78.0924C32.8279 78.1078 32.8515 78.1563 32.836 78.2008C32.8206 78.2449 32.7723 78.2683 32.7282 78.253C32.5118 78.1779 32.2965 78.1007 32.0821 78.0215C32.0387 78.0055 32.0167 77.9572 32.0328 77.9138C32.0494 77.8695 32.0988 77.847 32.1432 77.8634C32.3556 77.9417 32.5691 78.0181 32.7834 78.0924ZM56.2692 77.9138C56.2854 77.9567 56.2636 78.0045 56.2206 78.0204C56.006 78.0998 55.7907 78.1776 55.5741 78.2529C55.5299 78.2683 55.4816 78.2447 55.4664 78.2004C55.4511 78.1561 55.4747 78.1079 55.5189 78.0925C55.7335 78.0181 55.9473 77.9417 56.1599 77.8633C56.2041 77.847 56.2531 77.8696 56.2692 77.9138ZM31.189 77.4952C31.2328 77.5128 31.2541 77.5626 31.2366 77.6064C31.219 77.6494 31.1701 77.6702 31.127 77.6528C30.9145 77.567 30.7031 77.479 30.4926 77.3892C30.4496 77.3708 30.4298 77.3208 30.4486 77.2779C30.4672 77.2355 30.5166 77.216 30.5592 77.2341C30.768 77.3232 30.9781 77.4102 31.189 77.4952ZM57.8541 77.2797C57.8721 77.3217 57.8526 77.3704 57.8106 77.3883C57.5999 77.4782 57.3881 77.5661 57.1752 77.6519C57.1321 77.6693 57.0831 77.6483 57.0659 77.6052C57.0485 77.562 57.0695 77.513 57.1127 77.4956C57.3235 77.4107 57.5334 77.3237 57.7422 77.2348C57.7855 77.2163 57.8356 77.2364 57.8541 77.2797ZM29.6265 76.8198C29.669 76.8395 29.6876 76.8899 29.668 76.9324C29.6484 76.9748 29.5982 76.9933 29.5558 76.9737C29.3482 76.8777 29.1419 76.7793 28.9365 76.6793C28.8946 76.6589 28.8773 76.6083 28.8979 76.5665C28.9184 76.5248 28.9687 76.5076 29.0105 76.5279C29.2147 76.6272 29.42 76.7245 29.6265 76.8198ZM59.4048 76.5669C59.425 76.6085 59.4077 76.6588 59.366 76.679C59.1602 76.7791 58.9532 76.877 58.745 76.9731C58.7029 76.9925 58.6529 76.974 58.6336 76.9318C58.6142 76.8896 58.6327 76.8396 58.6749 76.8202C58.8817 76.7247 59.0876 76.6273 59.2922 76.528C59.334 76.5077 59.3844 76.525 59.4048 76.5669ZM28.0992 76.0686C28.1404 76.0902 28.1565 76.1411 28.135 76.1824C28.1136 76.2237 28.0627 76.2397 28.0214 76.2182C27.8183 76.112 27.6162 76.0042 27.4155 75.8942C27.3748 75.8719 27.3601 75.8207 27.3827 75.7801C27.4058 75.7389 27.4578 75.7241 27.4992 75.7469C27.698 75.856 27.898 75.9634 28.0992 76.0686ZM60.9189 75.7793C60.9413 75.8199 60.9266 75.8709 60.8859 75.8932C60.6847 76.0035 60.4824 76.1119 60.2788 76.2183C60.2385 76.2394 60.1887 76.2239 60.1674 76.1836C60.1457 76.1416 60.1621 76.09 60.204 76.068C60.4055 75.9627 60.6058 75.8554 60.8048 75.7462C60.8455 75.7239 60.8966 75.7387 60.9189 75.7793ZM26.6106 75.2429C26.6508 75.2665 26.6643 75.3181 26.6407 75.3583C26.6172 75.3984 26.5657 75.4119 26.5256 75.3884C26.3275 75.272 26.1309 75.1535 25.9353 75.0333C25.8964 75.0094 25.8846 74.9582 25.9089 74.9196C25.9339 74.8794 25.9866 74.867 26.0269 74.8918C26.2202 75.0106 26.4148 75.1278 26.6106 75.2429ZM62.3931 74.9196C62.4171 74.9583 62.4051 75.0092 62.3663 75.0331C62.1704 75.1534 61.9733 75.2719 61.7749 75.3884C61.7357 75.4115 61.6852 75.3983 61.6621 75.359C61.6385 75.3184 61.6523 75.2664 61.6928 75.2426C61.8886 75.1275 62.083 75.0103 62.2763 74.8915C62.3163 74.867 62.3687 74.8795 62.3931 74.9196ZM63.8226 73.9864C63.8489 74.0247 63.8392 74.0771 63.8008 74.1033C63.6118 74.2326 63.4215 74.3602 63.2297 74.4858C63.1908 74.5113 63.1386 74.5003 63.1132 74.4613C63.0878 74.4223 63.0989 74.3702 63.1378 74.3447C63.3283 74.2199 63.5176 74.0931 63.7055 73.9646C63.7439 73.9384 63.7963 73.9481 63.8226 73.9864ZM25.1639 74.3444C25.2029 74.37 25.2138 74.4224 25.1881 74.4614C25.1626 74.4999 25.1107 74.5107 25.072 74.4854C24.8804 74.3599 24.6899 74.2328 24.5009 74.1036C24.4623 74.0772 24.4526 74.0245 24.4792 73.9861C24.5057 73.9479 24.5581 73.9383 24.5964 73.9646C24.7842 74.093 24.9735 74.2197 25.1639 74.3444ZM23.7628 73.3755C23.801 73.4034 23.8096 73.4568 23.7819 73.4951C23.7546 73.5326 23.7023 73.5409 23.6648 73.5136C23.4796 73.3788 23.2958 73.242 23.1132 73.1036C23.076 73.0754 23.069 73.0223 23.0975 72.9852C23.1257 72.9484 23.1785 72.9414 23.2155 72.9695C23.3965 73.1066 23.579 73.2419 23.7628 73.3755ZM65.2052 72.9855C65.2334 73.0224 65.2262 73.0752 65.1892 73.1032C65.0067 73.2415 64.8227 73.3779 64.6375 73.5126C64.5999 73.5399 64.5474 73.5315 64.5201 73.4939C64.4929 73.4563 64.5013 73.4037 64.5389 73.3764C64.723 73.2425 64.906 73.107 65.0874 72.9695C65.1243 72.9415 65.1771 72.9486 65.2052 72.9855ZM22.4116 72.3409C22.4481 72.3703 22.4539 72.4236 22.4246 72.4601C22.3953 72.4965 22.3421 72.5024 22.3057 72.4731C22.1273 72.3294 21.9504 72.1839 21.7749 72.0367C21.7391 72.0067 21.7346 71.9532 21.765 71.9175C21.7951 71.8821 21.8481 71.8777 21.8838 71.9075C22.0582 72.0537 22.2343 72.1982 22.4116 72.3409ZM66.537 71.9184C66.567 71.9541 66.5624 72.0073 66.5267 72.0372C66.3513 72.1842 66.1746 72.3295 65.9964 72.473C65.96 72.5023 65.9067 72.4964 65.8776 72.4599C65.8486 72.4235 65.8545 72.3705 65.8908 72.3413C66.0679 72.1986 66.2435 72.054 66.4178 71.908C66.4536 71.8779 66.507 71.8826 66.537 71.9184ZM21.1121 71.241C21.1469 71.272 21.1502 71.3254 21.1192 71.3602C21.0883 71.395 21.0351 71.3983 21.0003 71.3673C20.8287 71.2147 20.6588 71.0603 20.4903 70.9043C20.457 70.8735 20.4551 70.8215 20.486 70.7883C20.5184 70.7537 20.5726 70.7517 20.6074 70.7839C20.7741 70.938 20.9424 71.0902 21.1121 71.241ZM67.816 70.7883C67.8469 70.8215 67.845 70.8735 67.8117 70.9043C67.6432 71.0603 67.4733 71.2147 67.3017 71.3673C67.267 71.3982 67.2137 71.3949 67.183 71.36C67.1524 71.3252 67.1557 71.2722 67.1903 71.2414C67.3599 71.0906 67.528 70.938 67.6947 70.7839C67.7294 70.7517 67.7837 70.7537 67.816 70.7883ZM69.0369 69.5947C69.0704 69.6273 69.0711 69.6809 69.0384 69.7142C68.878 69.8778 68.716 70.0398 68.5524 70.2003C68.519 70.233 68.4654 70.2323 68.4329 70.1988C68.4004 70.1654 68.4011 70.112 68.4344 70.0793C68.5969 69.9199 68.7581 69.7588 68.9175 69.5962C68.9501 69.563 69.0035 69.5623 69.0369 69.5947ZM19.8677 70.0793C19.9009 70.1119 19.9015 70.1653 19.869 70.1986C19.8365 70.2317 19.7832 70.2324 19.7501 70.1998C19.5865 70.0396 19.4244 69.878 19.2641 69.7147C19.2311 69.6811 19.2319 69.6272 19.2658 69.5945C19.2993 69.5621 19.3527 69.5629 19.3854 69.5962C19.5446 69.7588 19.7053 69.9199 19.8677 70.0793ZM18.6808 68.8565C18.713 68.8913 18.7111 68.9455 18.6764 68.9779C18.6422 69.0093 18.5891 69.0072 18.5575 68.9731C18.4021 68.805 18.2483 68.6352 18.0961 68.464C18.065 68.4291 18.0685 68.3755 18.1037 68.3447C18.1386 68.3141 18.1917 68.3175 18.2225 68.3522C18.3735 68.5219 18.5265 68.6899 18.6808 68.8565ZM70.1987 68.3454C70.2333 68.3759 70.2366 68.4286 70.206 68.463C70.0532 68.6348 69.8986 68.8049 69.7424 68.9736C69.7116 69.0069 69.6596 69.0088 69.6264 68.9779C69.5918 68.9455 69.5899 68.8913 69.622 68.8565C69.776 68.6901 69.9283 68.5222 70.079 68.3528C70.1101 68.3178 70.1636 68.3145 70.1987 68.3454ZM17.5559 67.5797C17.586 67.6155 17.5813 67.6689 17.5455 67.6989C17.5098 67.7288 17.4566 67.7242 17.4267 67.6885C17.2794 67.5129 17.1338 67.3357 16.99 67.1571C16.9612 67.1214 16.9671 67.069 17.003 67.0405C17.04 67.0109 17.0938 67.0169 17.1235 67.0537C17.2659 67.2305 17.4101 67.4058 17.5559 67.5797ZM71.298 67.0395C71.3345 67.0686 71.3405 67.1218 71.3112 67.1582C71.1673 67.3368 71.0218 67.5139 70.8745 67.6895C70.8451 67.7247 70.7927 67.7292 70.7576 67.6996C70.7212 67.6692 70.7165 67.615 70.7469 67.5786C70.8927 67.4047 71.037 67.2294 71.1794 67.0526C71.2086 67.0164 71.2616 67.0105 71.298 67.0395ZM16.4948 66.2488C16.5231 66.286 16.5158 66.339 16.4786 66.3672C16.4415 66.3953 16.3887 66.3881 16.3606 66.351C16.2223 66.1687 16.0856 65.985 15.9508 65.7998C15.9233 65.762 15.9319 65.7091 15.9698 65.6819C16.0075 65.6547 16.0602 65.6632 16.0875 65.7008C16.2215 65.8848 16.3574 66.0675 16.4948 66.2488ZM72.332 65.682C72.3696 65.7092 72.3781 65.7618 72.3507 65.7993C72.216 65.9846 72.0797 66.1686 71.9414 66.3511C71.9133 66.3881 71.8606 66.3952 71.8236 66.3671C71.7867 66.3389 71.7796 66.2862 71.8077 66.2492C71.9451 66.0678 72.0806 65.8849 72.2146 65.7007C72.2419 65.6632 72.2944 65.6548 72.332 65.682ZM15.4994 64.8664C15.526 64.9052 15.516 64.9583 15.4771 64.9847C15.4385 65.0109 15.386 65.001 15.3597 64.9625C15.2304 64.7733 15.1032 64.5827 14.9776 64.3909C14.9524 64.3524 14.9634 64.3008 15.0021 64.2759C15.0418 64.2501 15.0949 64.2613 15.1209 64.3009C15.2452 64.4907 15.3715 64.6793 15.4994 64.8664ZM73.2999 64.2759C73.3386 64.3008 73.3496 64.3524 73.3244 64.3909C73.1984 64.5832 73.0705 64.774 72.9408 64.9636C72.9149 65.0015 72.8632 65.0111 72.8254 64.9852C72.7866 64.9585 72.7768 64.9054 72.8034 64.8664C72.9315 64.6791 73.0579 64.4903 73.1824 64.3003C73.2081 64.2611 73.2607 64.2501 73.2999 64.2759ZM14.5728 63.4376C14.5975 63.4779 14.5848 63.5306 14.5443 63.555C14.505 63.579 14.4537 63.5667 14.4296 63.5275C14.3099 63.3325 14.1919 63.1364 14.0759 62.9389C14.0522 62.8986 14.066 62.8467 14.1065 62.8233C14.1467 62.8001 14.1981 62.8137 14.2217 62.8538C14.3368 63.0496 14.454 63.2442 14.5728 63.4376ZM74.1963 62.8239C74.236 62.847 74.2494 62.8979 74.2262 62.9374C74.1097 63.1357 73.9912 63.3327 73.871 63.5285C73.8472 63.5672 73.7966 63.5794 73.7577 63.5558C73.7176 63.5309 73.7052 63.4781 73.7299 63.4378C73.8487 63.2444 73.9659 63.0499 74.0811 62.854C74.1046 62.8139 74.1562 62.8004 74.1963 62.8239ZM13.7182 61.9662C13.7407 62.0071 13.7258 62.0585 13.6848 62.0809C13.6441 62.1032 13.5929 62.0884 13.5706 62.0476C13.4606 61.8472 13.3522 61.6458 13.246 61.443C13.2243 61.4015 13.2405 61.3503 13.2821 61.3288C13.3236 61.3074 13.3745 61.3236 13.3962 61.3649C13.5016 61.5665 13.609 61.767 13.7182 61.9662ZM75.0202 61.329C75.0612 61.3504 75.0772 61.401 75.0557 61.442C74.9493 61.6455 74.841 61.8478 74.7307 62.0489C74.7087 62.089 74.6585 62.1038 74.6182 62.0821C74.5771 62.0589 74.5623 62.0069 74.585 61.9655C74.6942 61.7664 74.8015 61.566 74.9069 61.3646C74.9284 61.3235 74.9791 61.3075 75.0202 61.329ZM12.9363 60.4532C12.9569 60.4955 12.9393 60.5465 12.897 60.567C12.8549 60.5875 12.8041 60.5701 12.7836 60.5279C12.684 60.3225 12.5867 60.1157 12.491 59.9081C12.4714 59.8657 12.49 59.8155 12.5323 59.7959C12.5749 59.7763 12.6253 59.7949 12.6449 59.8374C12.7401 60.0437 12.8372 60.2491 12.9363 60.4532ZM75.7699 59.7954C75.8121 59.8148 75.8307 59.8647 75.8112 59.9069C75.7151 60.115 75.6172 60.322 75.5172 60.5279C75.4969 60.5696 75.4467 60.5869 75.405 60.5666C75.3632 60.5463 75.3458 60.4959 75.3661 60.454C75.4655 60.2495 75.5629 60.0435 75.6583 59.8368C75.6778 59.7946 75.7277 59.776 75.7699 59.7954ZM12.23 58.9041C12.2484 58.9474 12.2283 58.9975 12.185 59.0159C12.1425 59.034 12.0934 59.0142 12.0753 58.9718C11.9856 58.7614 11.8979 58.55 11.8122 58.3376C11.7947 58.2942 11.8158 58.245 11.8593 58.2277C11.9026 58.2104 11.9517 58.2315 11.9692 58.2747C12.0541 58.4855 12.141 58.6954 12.23 58.9041ZM76.4433 58.2277C76.4865 58.245 76.5074 58.294 76.49 58.3371C76.4042 58.5499 76.3163 58.7617 76.2264 58.9725C76.2085 59.0145 76.1599 59.0339 76.1179 59.0159C76.0745 58.9975 76.0544 58.9474 76.0729 58.9041C76.1619 58.6953 76.2488 58.4854 76.3338 58.2745C76.3512 58.2314 76.4002 58.2104 76.4433 58.2277ZM11.6016 57.3223C11.6178 57.3662 11.5954 57.415 11.5515 57.4312C11.5077 57.4473 11.4592 57.425 11.443 57.3813C11.3638 57.1671 11.2861 56.9521 11.211 56.736C11.1956 56.6917 11.2192 56.6435 11.2635 56.6282C11.3083 56.613 11.357 56.6369 11.3725 56.6816C11.4468 56.896 11.5232 57.1098 11.6016 57.3223ZM77.0385 56.6282C77.0828 56.6435 77.1064 56.6917 77.091 56.736C77.0159 56.9522 76.9382 57.1672 76.8589 57.3815C76.8428 57.4251 76.7944 57.4473 76.7508 57.4311C76.7072 57.415 76.685 57.3665 76.7011 57.3228C76.7796 57.1098 76.8562 56.8957 76.9307 56.6808C76.946 56.6366 76.9942 56.613 77.0385 56.6282ZM11.0515 55.7105C11.0656 55.7554 11.0406 55.8033 10.9956 55.8172C10.9511 55.8309 10.9037 55.8062 10.8898 55.7617C10.8215 55.544 10.7556 55.3253 10.6915 55.1057C10.6784 55.0607 10.7044 55.0137 10.7494 55.0007C10.7944 54.9878 10.8412 55.0137 10.8543 55.0586C10.918 55.2767 10.9837 55.4942 11.0515 55.7105ZM77.5531 55.0008C77.5979 55.0137 77.6237 55.0605 77.6107 55.1052C77.5465 55.325 77.4805 55.544 77.4122 55.762C77.3983 55.8063 77.3511 55.8309 77.3067 55.8171C77.262 55.8032 77.2372 55.7557 77.2512 55.711C77.3191 55.4944 77.3849 55.2767 77.4486 55.0583C77.4617 55.0136 77.5084 54.9878 77.5531 55.0008ZM10.5819 54.0736C10.5937 54.1191 10.5665 54.1657 10.5209 54.1775C10.4756 54.1892 10.4293 54.1621 10.4175 54.1168C10.3601 53.896 10.3051 53.6743 10.252 53.4518C10.2412 53.4066 10.2692 53.3614 10.3144 53.3508C10.3605 53.3397 10.4068 53.3682 10.4178 53.4143C10.4705 53.6348 10.525 53.8547 10.5819 54.0736ZM77.9876 53.3508C78.0324 53.3614 78.0601 53.4063 78.0494 53.451C77.9962 53.6739 77.9411 53.8959 77.8836 54.1171C77.8719 54.1622 77.8258 54.1892 77.7806 54.1775C77.7353 54.1657 77.7082 54.1194 77.72 54.0741C77.7771 53.8548 77.8323 53.6345 77.8852 53.4135C77.8961 53.3679 77.942 53.3397 77.9876 53.3508ZM10.1942 52.416C10.2038 52.462 10.1742 52.5071 10.1282 52.5166C10.0824 52.5261 10.0376 52.4967 10.0281 52.451C9.98165 52.2276 9.93752 52.0033 9.89537 51.7784C9.88683 51.7328 9.91705 51.689 9.96269 51.6807C10.0089 51.6724 10.0531 51.703 10.0618 51.7491C10.1037 51.9722 10.148 52.1944 10.1942 52.416ZM78.3393 51.6807C78.385 51.689 78.4152 51.7328 78.4066 51.7784C78.3643 52.0036 78.3196 52.228 78.273 52.4516C78.2635 52.497 78.2191 52.526 78.1737 52.5166C78.1282 52.5071 78.099 52.4625 78.1085 52.417C78.1546 52.1951 78.1984 51.9725 78.2403 51.7491C78.2489 51.703 78.2931 51.6724 78.3393 51.6807ZM9.88847 50.7416C9.89572 50.7878 9.86432 50.8312 9.81818 50.8385C9.77203 50.8459 9.72863 50.8145 9.72137 50.7683C9.68592 50.5429 9.65258 50.3168 9.62147 50.0899C9.61516 50.0439 9.6476 50.0016 9.69368 49.9956C9.74022 49.9891 9.78314 50.0217 9.78952 50.0683C9.82037 50.2934 9.85333 50.5179 9.88847 50.7416ZM78.6092 49.9956C78.6544 50.0016 78.6861 50.0431 78.68 50.0883C78.6489 50.3157 78.6161 50.5424 78.5806 50.7683C78.5734 50.8145 78.53 50.8459 78.4838 50.8385C78.4377 50.8312 78.4063 50.7878 78.4136 50.7416C78.4488 50.5179 78.4824 50.2934 78.5133 50.0683C78.5197 50.0217 78.5626 49.9891 78.6092 49.9956ZM9.66533 49.054C9.6703 49.1006 9.63661 49.1424 9.59007 49.1472C9.54386 49.1521 9.50243 49.1186 9.49748 49.0725C9.47313 48.8453 9.45099 48.6174 9.43102 48.389C9.427 48.3429 9.4613 48.3025 9.50737 48.2988C9.55452 48.2951 9.59581 48.3301 9.59992 48.3773C9.61964 48.6035 9.64128 48.8291 9.66533 49.054ZM78.7947 48.2988C78.8403 48.3025 78.8742 48.3425 78.8702 48.3881C78.8502 48.617 78.8281 48.8452 78.8037 49.0728C78.7987 49.1188 78.7575 49.1521 78.7115 49.1472C78.6652 49.1424 78.6317 49.1008 78.6367 49.0545C78.6609 48.8291 78.6831 48.6031 78.703 48.3764C78.7071 48.3298 78.748 48.2951 78.7947 48.2988ZM9.52914 47.4147C9.53003 47.4295 9.51868 47.4423 9.50381 47.4432L9.44446 47.4466C9.44424 47.4466 9.44413 47.4469 9.44429 47.447C9.44445 47.4472 9.44435 47.4475 9.44412 47.4475L9.38726 47.4504C9.37327 47.4511 9.36132 47.4404 9.36048 47.4264C9.34567 47.1784 9.33371 46.9298 9.32415 46.6805C9.3224 46.6349 9.35817 46.5967 9.40377 46.5953C9.4508 46.5935 9.49036 46.6302 9.4922 46.6772C9.50184 46.9236 9.51446 47.1696 9.52914 47.4147ZM78.8969 46.5949C78.9433 46.5965 78.9796 46.6355 78.9778 46.6819C78.9689 46.9118 78.9574 47.1411 78.9441 47.3698C78.9414 47.4151 78.9027 47.4498 78.8573 47.4475C78.8101 47.4442 78.7744 47.4035 78.7772 47.3563C78.7903 47.1301 78.8011 46.9032 78.8099 46.6758C78.8117 46.6295 78.8506 46.5933 78.8969 46.5949ZM9.29517 45.3129C9.29517 45.1977 9.29729 45.0826 9.29902 44.9677C9.29972 44.9211 9.33785 44.8838 9.38438 44.8843C9.43105 44.8848 9.46847 44.923 9.46803 44.9697C9.46694 45.0839 9.46643 45.1985 9.46643 45.3129C9.46643 45.4273 9.46694 45.5418 9.46803 45.6561C9.46847 45.7027 9.43105 45.741 9.38438 45.7415C9.33785 45.7419 9.29972 45.7046 9.29902 45.6581C9.29729 45.5432 9.29517 45.428 9.29517 45.3129ZM79.003 45.6586C79.0024 45.7049 78.9644 45.7419 78.9181 45.7415C78.8717 45.741 78.8344 45.7029 78.8348 45.6564C78.8359 45.5421 78.8364 45.4274 78.8364 45.3129C78.8364 45.1989 78.8359 45.085 78.8348 44.9712C78.8344 44.924 78.872 44.8852 78.9191 44.8843C78.9648 44.8838 79.0023 44.9205 79.0031 44.9662C79.005 45.0816 79.0077 45.1972 79.0077 45.3129L79.003 45.6586ZM9.44629 43.1791C9.49293 43.1819 9.52846 43.222 9.52576 43.2686C9.51266 43.4944 9.50181 43.7208 9.49305 43.9477C9.49121 43.9952 9.45126 44.0323 9.40377 44.0305C9.35818 44.0291 9.3224 43.9909 9.32415 43.9453C9.33296 43.7157 9.34379 43.4868 9.35701 43.2584C9.35971 43.2118 9.39972 43.1764 9.44629 43.1791ZM78.8557 43.1791C78.9018 43.1764 78.9415 43.2115 78.9442 43.2576C78.958 43.4946 78.9698 43.7322 78.9788 43.9705C78.98 44.0023 78.9553 44.029 78.9235 44.0303L78.8988 44.0313C78.8985 44.0313 78.8981 44.0311 78.8978 44.0309C78.8976 44.0306 78.8972 44.0305 78.8968 44.0305L78.8718 44.0315C78.8394 44.0328 78.8121 44.0075 78.8109 43.975C78.8019 43.7387 78.7907 43.5029 78.7771 43.2677C78.7744 43.2216 78.8095 43.1819 78.8557 43.1791ZM9.59089 41.4786C9.63711 41.4839 9.67035 41.5256 9.6654 41.5718C9.6413 41.7973 9.61961 42.0234 9.59984 42.2502C9.59579 42.2968 9.55485 42.3313 9.50828 42.3274C9.46165 42.3235 9.42703 42.2825 9.4311 42.2359C9.45104 42.0077 9.47308 41.7802 9.49738 41.5534C9.50237 41.5068 9.54437 41.4733 9.59089 41.4786ZM78.7111 41.479C78.7572 41.4739 78.7988 41.5072 78.8037 41.5534C78.8281 41.7805 78.8502 42.0083 78.8702 42.2368C78.8742 42.2829 78.84 42.3235 78.7938 42.3274C78.7477 42.3313 78.7071 42.2971 78.7031 42.251C78.6832 42.0239 78.6609 41.7975 78.6366 41.5717C78.6317 41.5256 78.665 41.4841 78.7111 41.479ZM9.81818 39.7872C9.86431 39.7946 9.89572 39.838 9.88847 39.8841C9.85333 40.1078 9.82037 40.3324 9.78952 40.5575C9.78314 40.604 9.74022 40.6366 9.69368 40.6302C9.6476 40.6242 9.61516 40.5819 9.62147 40.5358C9.65258 40.309 9.68592 40.0829 9.72137 39.8574C9.72863 39.8113 9.77203 39.7798 9.81818 39.7872ZM78.4838 39.7872C78.53 39.7798 78.5734 39.8113 78.5806 39.8574C78.6175 40.0925 78.6515 40.3283 78.6837 40.5648C78.6878 40.595 78.6668 40.6228 78.6366 40.6271L78.6098 40.6309C78.6094 40.631 78.609 40.6309 78.6088 40.6306C78.6085 40.6303 78.6081 40.6302 78.6078 40.6303L78.5807 40.6341C78.5499 40.6384 78.5214 40.6168 78.5172 40.586C78.4852 40.3513 78.4503 40.1173 78.4136 39.8841C78.4063 39.838 78.4377 39.7946 78.4838 39.7872ZM10.1281 38.1088C10.1744 38.119 10.2038 38.1645 10.1941 38.2109C10.1479 38.4324 10.1037 38.6547 10.0618 38.8778C10.0531 38.9237 10.009 38.954 9.96304 38.9455C9.91716 38.9369 9.88685 38.8929 9.89547 38.847C9.93779 38.6216 9.98242 38.397 10.0291 38.1732C10.0385 38.128 10.0829 38.0991 10.1281 38.1088ZM78.1748 38.1088C78.2194 38.0991 78.2635 38.1276 78.2728 38.1724C78.3195 38.3965 78.3642 38.6213 78.4066 38.847C78.4152 38.8929 78.3849 38.9369 78.339 38.9455C78.2931 38.954 78.2489 38.9237 78.2403 38.8778C78.1985 38.6547 78.1548 38.4324 78.1087 38.2109C78.0991 38.1645 78.1285 38.119 78.1748 38.1088ZM10.5208 36.4479C10.5666 36.4604 10.5937 36.5075 10.5818 36.5534C10.525 36.7719 10.4705 36.9913 10.4178 37.2115C10.4068 37.2576 10.3605 37.2861 10.3144 37.275C10.2692 37.2644 10.2412 37.2191 10.252 37.174C10.3054 36.9509 10.3609 36.7287 10.4185 36.5074C10.4302 36.4626 10.4761 36.4359 10.5208 36.4479ZM77.7813 36.4479C77.826 36.4359 77.8719 36.4626 77.8835 36.5074C77.9436 36.7388 78.001 36.9713 78.0565 37.2047C78.0633 37.233 78.0459 37.2615 78.0177 37.2685L77.989 37.2757C77.9887 37.2758 77.9883 37.2757 77.988 37.2754C77.9878 37.2752 77.9874 37.2751 77.987 37.2751L77.958 37.2822C77.9287 37.2893 77.8993 37.2712 77.8923 37.2419C77.8373 37.0115 77.7798 36.782 77.7203 36.5534C77.7083 36.5075 77.7355 36.4604 77.7813 36.4479ZM10.9964 34.8088C11.041 34.8231 11.0657 34.8708 11.0517 34.9156C10.984 35.1313 10.9184 35.3481 10.8548 35.5656C10.8415 35.6113 10.7937 35.6375 10.748 35.6242C10.7037 35.6112 10.6782 35.5649 10.6911 35.5205C10.7552 35.3009 10.8212 35.0821 10.8895 34.8642C10.9036 34.8193 10.9515 34.7945 10.9964 34.8088ZM77.3067 34.8088C77.3509 34.7945 77.3983 34.8189 77.4122 34.8632C77.4838 35.0914 77.5527 35.3205 77.6197 35.5506C77.6278 35.5784 77.6119 35.6075 77.5843 35.6159L77.5546 35.6248C77.5542 35.6249 77.5539 35.6248 77.5536 35.6246C77.5533 35.6243 77.553 35.6242 77.5526 35.6243L77.5231 35.6332C77.495 35.6415 77.4655 35.6255 77.4573 35.5973C77.3909 35.3692 77.3222 35.142 77.2513 34.9158C77.2372 34.8709 77.2619 34.8231 77.3067 34.8088ZM11.5509 33.1947C11.5952 33.2113 11.6177 33.2606 11.6013 33.3051C11.523 33.5174 11.4467 33.7308 11.3725 33.945C11.357 33.9897 11.3083 34.0134 11.2637 33.9979C11.2192 33.9824 11.1957 33.934 11.2111 33.8895C11.286 33.6736 11.3631 33.4587 11.4421 33.2447C11.4583 33.2009 11.507 33.1785 11.5509 33.1947ZM76.752 33.1947C76.7953 33.1785 76.8436 33.2006 76.8596 33.244C76.9388 33.4584 77.0161 33.6737 77.0911 33.89C77.1065 33.9342 77.0831 33.9824 77.0389 33.9978C76.9945 34.0133 76.9459 33.9898 76.9305 33.9453C76.8562 33.731 76.7799 33.5175 76.7015 33.3051C76.6851 33.2606 76.7077 33.2113 76.752 33.1947ZM12.1862 31.6104C12.229 31.629 12.2487 31.6787 12.2304 31.7216C12.1414 31.9303 12.0544 32.1403 11.9695 32.3511C11.9519 32.3948 11.9023 32.416 11.8586 32.3984C11.8151 32.3809 11.7939 32.3314 11.8115 32.2879C11.8971 32.0758 11.985 31.8648 12.0746 31.6547C12.093 31.6115 12.1432 31.5917 12.1862 31.6104ZM76.1161 31.6105C76.159 31.5917 76.209 31.6114 76.2273 31.6545C76.3171 31.8648 76.4051 32.076 76.4908 32.2884C76.5082 32.3317 76.4872 32.3809 76.444 32.3984C76.4005 32.4159 76.351 32.3949 76.3335 32.3514C76.2484 32.1403 76.1614 31.9301 76.0723 31.7211C76.0541 31.6784 76.0736 31.6291 76.1161 31.6105ZM12.8974 30.0593C12.9395 30.08 12.9569 30.131 12.9364 30.1732C12.8373 30.3771 12.7402 30.5821 12.645 30.7881C12.6253 30.8308 12.5748 30.8495 12.5321 30.8299C12.4894 30.8103 12.4707 30.7598 12.4904 30.7172C12.5861 30.5098 12.6837 30.3035 12.7834 30.0984C12.804 30.056 12.8551 30.0385 12.8974 30.0593ZM75.4046 30.0597C75.4465 30.0392 75.4971 30.0564 75.5174 30.0983C75.6174 30.3038 75.7158 30.5101 75.8119 30.7177C75.8314 30.7601 75.8129 30.8103 75.7705 30.8298C75.728 30.8495 75.6776 30.8308 75.658 30.7883C75.5626 30.5819 75.4653 30.3766 75.366 30.1724C75.3457 30.1306 75.363 30.0802 75.4046 30.0597ZM74.6182 28.5445C74.6588 28.522 74.71 28.5366 74.7323 28.5773C74.8423 28.7781 74.9502 28.9803 75.0564 29.1834C75.0779 29.2247 75.062 29.2755 75.0208 29.2971C74.9794 29.3189 74.9282 29.3028 74.9065 29.2614C74.8013 29.0602 74.694 28.8599 74.585 28.661C74.5623 28.6197 74.5771 28.5677 74.6182 28.5445ZM13.6849 28.5451C13.7259 28.5679 13.7407 28.6195 13.7181 28.6606C13.609 28.8595 13.5015 29.0596 13.3962 29.2609C13.3745 29.3022 13.3236 29.3184 13.2821 29.297C13.2405 29.2755 13.2243 29.2243 13.246 29.1828C13.3518 28.9802 13.4594 28.7787 13.5691 28.5784C13.5918 28.5371 13.6437 28.5222 13.6849 28.5451ZM14.5451 27.0708C14.5853 27.0957 14.5977 27.1485 14.573 27.1888C14.4542 27.3821 14.337 27.5765 14.2219 27.7723C14.1983 27.8126 14.1465 27.8262 14.1062 27.8027C14.0658 27.7792 14.0521 27.7273 14.0758 27.687C14.1917 27.4895 14.3094 27.2933 14.429 27.0984C14.4534 27.0587 14.5054 27.0463 14.5451 27.0708ZM73.756 27.0715C73.7957 27.0467 73.8479 27.0589 73.8724 27.0987C73.9922 27.2937 74.1104 27.4899 74.2265 27.6875C74.25 27.7275 74.2366 27.7791 74.1965 27.8026C74.1563 27.8262 74.1046 27.8126 74.081 27.7725C73.9656 27.5761 73.8481 27.3811 73.729 27.1872C73.7047 27.1478 73.7168 27.0961 73.756 27.0715ZM15.478 25.641C15.5165 25.6675 15.5262 25.7202 15.4998 25.7588C15.3716 25.9463 15.245 26.1354 15.1204 26.3256C15.0947 26.3648 15.0422 26.3758 15.0029 26.3502C14.9637 26.3246 14.9527 26.2721 14.9783 26.2329C15.1038 26.0415 15.2311 25.8515 15.3602 25.6628C15.3866 25.6242 15.4394 25.6144 15.478 25.641ZM72.8254 25.6405C72.8631 25.6143 72.9151 25.6237 72.941 25.6617C73.0704 25.8511 73.1978 26.0419 73.3235 26.2339C73.3489 26.2726 73.3381 26.3245 73.2995 26.3499C73.2606 26.3757 73.2082 26.3648 73.1826 26.3258C73.0581 26.136 72.9317 25.9477 72.8037 25.7605C72.7769 25.7213 72.7865 25.6678 72.8254 25.6405ZM16.4789 24.2592C16.516 24.2875 16.5231 24.3406 16.4949 24.3778C16.3575 24.5589 16.2217 24.7414 16.0879 24.9253C16.0603 24.9631 16.0074 24.9716 15.9695 24.9441C15.9317 24.9167 15.9233 24.8638 15.9508 24.826C16.0855 24.641 16.222 24.4574 16.3603 24.2752C16.3885 24.2379 16.4417 24.2308 16.4789 24.2592ZM71.8245 24.2587C71.8609 24.2306 71.9132 24.2375 71.941 24.2741C72.0795 24.4567 72.2163 24.6406 72.3513 24.826C72.3788 24.8638 72.3703 24.9167 72.3325 24.9441C72.2947 24.9716 72.2417 24.9631 72.2142 24.9253C72.0806 24.7417 71.9454 24.5592 71.8084 24.3783C71.7799 24.3408 71.7871 24.2873 71.8245 24.2587ZM17.5464 22.9268C17.5818 22.9569 17.5862 23.01 17.5563 23.0456C17.4102 23.22 17.2657 23.3962 17.123 23.5735C17.0936 23.61 17.0403 23.6158 17.0038 23.5865C16.9674 23.5572 16.9615 23.504 16.9908 23.4676C17.1345 23.2892 17.28 23.1123 17.4272 22.9368C17.4572 22.9009 17.5107 22.8965 17.5464 22.9268ZM70.7556 22.9268C70.7913 22.8965 70.8448 22.9009 70.8749 22.9368C71.022 23.1123 71.1675 23.2892 71.3112 23.4676C71.3405 23.504 71.3347 23.5572 71.2983 23.5865C71.2618 23.6158 71.2084 23.61 71.1791 23.5735C71.0363 23.3962 70.8918 23.22 70.7457 23.0456C70.7158 23.01 70.7202 22.9569 70.7556 22.9268ZM18.6764 21.6479C18.7111 21.6802 18.713 21.7345 18.6808 21.7692C18.5266 21.9359 18.3738 22.1042 18.2229 22.274C18.1919 22.3088 18.1385 22.312 18.1037 22.2811C18.0689 22.2502 18.0656 22.197 18.0965 22.1622C18.2487 21.9909 18.4021 21.8209 18.5576 21.6527C18.5891 21.6186 18.6422 21.6165 18.6764 21.6479ZM69.6264 21.6479C69.6596 21.617 69.7116 21.6189 69.7424 21.6522C69.8984 21.8207 70.0528 21.9906 70.2055 22.1622C70.2364 22.197 70.2332 22.2502 70.1984 22.2811C70.1635 22.312 70.1101 22.3088 70.0792 22.274C69.9284 22.1043 69.7761 21.9359 69.622 21.7692C69.5899 21.7345 69.5918 21.6802 69.6264 21.6479ZM19.8686 20.4265C19.9015 20.4607 19.9006 20.515 19.8667 20.5482C19.7047 20.7071 19.5443 20.8675 19.3854 21.0295C19.3528 21.0628 19.2994 21.0635 19.266 21.031C19.2325 20.9985 19.2318 20.9449 19.2645 20.9115C19.4249 20.7479 19.587 20.5859 19.7506 20.4254C19.7835 20.3931 19.8363 20.3937 19.8686 20.4265ZM68.4327 20.4276C68.4653 20.3938 68.5192 20.393 68.5528 20.4259C68.7162 20.5863 68.8778 20.7484 69.038 20.9119C69.0705 20.9451 69.0699 20.9983 69.0367 21.0308C69.0034 21.0634 68.9501 21.0628 68.9175 21.0295C68.7581 20.8671 68.5969 20.7065 68.4344 20.5473C68.4011 20.5146 68.4003 20.4612 68.4327 20.4276ZM21.1192 19.2655C21.1502 19.3004 21.1469 19.3537 21.1121 19.3847C20.9422 19.5359 20.7737 19.6888 20.6068 19.8432C20.5724 19.875 20.5186 19.873 20.4868 19.8386C20.455 19.8043 20.457 19.7507 20.4913 19.7189C20.6594 19.5637 20.8292 19.4104 21.0003 19.2584C21.0351 19.2275 21.0883 19.2307 21.1192 19.2655ZM67.1828 19.2655C67.2136 19.2303 67.2672 19.2269 67.3022 19.258C67.4732 19.41 67.6427 19.5636 67.8107 19.7189C67.8451 19.7507 67.8471 19.8043 67.8153 19.8386C67.7834 19.873 67.7296 19.875 67.6952 19.8432C67.5283 19.6887 67.3602 19.5356 67.1903 19.3844C67.1557 19.3535 67.1523 19.3005 67.1828 19.2655ZM22.4246 18.1656C22.4539 18.2021 22.4481 18.2555 22.4116 18.2848C22.2343 18.4276 22.0582 18.5721 21.8838 18.7182C21.8481 18.7481 21.7951 18.7437 21.765 18.7083C21.7346 18.6726 21.7391 18.6191 21.7749 18.589C21.9504 18.4419 22.1273 18.2964 22.3057 18.1527C22.3421 18.1234 22.3953 18.1292 22.4246 18.1656ZM65.8776 18.1659C65.9067 18.1294 65.96 18.1234 65.9964 18.1527C66.1746 18.2963 66.3513 18.4416 66.5267 18.5885C66.5624 18.6185 66.567 18.6717 66.537 18.7074C66.507 18.7432 66.4536 18.7478 66.4178 18.7178C66.2436 18.5717 66.0679 18.4272 65.8908 18.2845C65.8545 18.2553 65.8486 18.2023 65.8776 18.1659ZM23.7823 17.1314C23.8097 17.1692 23.8013 17.2222 23.7634 17.2497C23.5796 17.3836 23.397 17.5194 23.2159 17.6568C23.1787 17.685 23.1256 17.6779 23.0973 17.6407C23.0689 17.6036 23.076 17.5504 23.1133 17.5221C23.2956 17.3839 23.4791 17.2473 23.6642 17.1126C23.7019 17.0851 23.7548 17.0936 23.7823 17.1314ZM64.52 17.1317C64.5473 17.0937 64.6002 17.0852 64.6379 17.1127C64.8231 17.2475 65.0068 17.3841 65.1892 17.5225C65.2262 17.5506 65.2334 17.6034 65.2054 17.6405C65.1772 17.6777 65.1241 17.6849 65.0869 17.6567C64.9056 17.5192 64.723 17.3834 64.5389 17.2494C64.5013 17.222 64.4928 17.1694 64.52 17.1317ZM25.1883 16.1648C25.214 16.204 25.2029 16.2566 25.1637 16.2823C24.9737 16.4069 24.7851 16.5335 24.5976 16.6617C24.5591 16.6881 24.5064 16.6785 24.4797 16.6401C24.4529 16.6015 24.4626 16.5483 24.5014 16.5218C24.69 16.3928 24.8798 16.2655 25.0711 16.1402C25.1102 16.1145 25.1627 16.1256 25.1883 16.1648ZM63.1131 16.1651C63.1385 16.1258 63.1911 16.1146 63.2302 16.1402C63.4216 16.2656 63.6119 16.3925 63.8006 16.5215C63.8391 16.5478 63.849 16.6004 63.8228 16.6389C63.7964 16.6779 63.7434 16.6879 63.7046 16.6613C63.517 16.5331 63.328 16.4066 63.1379 16.282C63.0989 16.2564 63.0878 16.2042 63.1131 16.1651ZM26.6408 15.268C26.6644 15.3084 26.6507 15.3601 26.6105 15.3838C26.4145 15.499 26.2199 15.6163 26.0264 15.7352C25.9864 15.7597 25.9341 15.7474 25.9094 15.7075C25.8847 15.6675 25.8971 15.6151 25.9371 15.5906C26.1318 15.471 26.3279 15.3535 26.5251 15.2377C26.5654 15.214 26.6173 15.2276 26.6408 15.268ZM61.6614 15.2684C61.6848 15.2278 61.7367 15.2141 61.777 15.2378C61.9881 15.3617 62.1976 15.4879 62.4058 15.6162C62.4228 15.6267 62.4283 15.649 62.4181 15.6662L62.3942 15.7065C62.3941 15.7068 62.3937 15.7068 62.3935 15.7066C62.3933 15.7064 62.3929 15.7064 62.3928 15.7067L62.3684 15.7472C62.3576 15.7651 62.3343 15.7707 62.3166 15.7598C62.1098 15.6324 61.9015 15.5067 61.6919 15.3835C61.6519 15.36 61.6382 15.3086 61.6614 15.2684ZM28.1353 14.4437C28.1571 14.4852 28.1409 14.5365 28.0993 14.5583C27.898 14.6636 27.6977 14.7709 27.4987 14.88C27.4576 14.9025 27.406 14.8877 27.3832 14.8468C27.3603 14.8056 27.3753 14.7536 27.4166 14.731C27.6168 14.6213 27.8184 14.5137 28.0211 14.4077C28.0625 14.3861 28.1137 14.4022 28.1353 14.4437ZM60.1669 14.444C60.1884 14.4024 60.2396 14.3861 60.2811 14.4079C60.4839 14.514 60.6854 14.6224 60.8858 14.7324C60.9265 14.7548 60.9414 14.806 60.919 14.8467C60.8966 14.8876 60.8452 14.9025 60.8043 14.8801C60.6051 14.7708 60.4046 14.6635 60.203 14.558C60.1617 14.5364 60.1455 14.4854 60.1669 14.444ZM29.668 13.6939C29.6877 13.7366 29.6689 13.7871 29.6263 13.8068C29.4202 13.902 29.2152 13.9992 29.0113 14.0983C28.9691 14.1188 28.9182 14.1014 28.8974 14.0593C28.8766 14.017 28.8941 13.9658 28.9365 13.9452C29.1417 13.8456 29.348 13.748 29.5553 13.6522C29.598 13.6326 29.6484 13.6513 29.668 13.6939ZM58.6341 13.6942C58.6536 13.6518 58.7038 13.6333 58.7462 13.6528C58.9539 13.7486 59.1606 13.8458 59.366 13.9455C59.4082 13.966 59.4257 14.0168 59.4052 14.0589C59.3846 14.1012 59.3336 14.1187 59.2913 14.0982C59.0873 13.9991 58.8819 13.902 58.6756 13.8068C58.633 13.7871 58.6144 13.7367 58.6341 13.6942ZM31.2366 13.0205C31.2541 13.0641 31.2329 13.1137 31.1893 13.1313C30.9784 13.2163 30.7685 13.3033 30.5597 13.3922C30.5168 13.4105 30.4672 13.3909 30.4485 13.3481C30.4298 13.305 30.4496 13.2549 30.4928 13.2365C30.7029 13.1468 30.9139 13.059 31.126 12.9733C31.1696 12.9558 31.2191 12.9769 31.2366 13.0205ZM57.0658 13.0211C57.0831 12.9777 57.1324 12.9566 57.1757 12.9741C57.388 13.0596 57.5992 13.1473 57.8093 13.2369C57.8521 13.2552 57.872 13.3046 57.8538 13.3474C57.8355 13.3904 57.7858 13.4104 57.7428 13.3921C57.5339 13.3031 57.3238 13.2161 57.1129 13.131C57.0696 13.1136 57.0485 13.0645 57.0658 13.0211ZM32.836 12.4255C32.8515 12.4702 32.8278 12.5189 32.7832 12.5343C32.5688 12.6087 32.3552 12.685 32.1427 12.7634C32.0986 12.7797 32.0496 12.7572 32.0332 12.7132C32.0168 12.6691 32.0393 12.6201 32.0834 12.6038C32.2972 12.5249 32.5119 12.4478 32.7277 12.3729C32.7721 12.3575 32.8206 12.3811 32.836 12.4255ZM55.4664 12.4254C55.4816 12.3811 55.5298 12.3575 55.5741 12.3729C55.7902 12.448 56.0052 12.5257 56.2194 12.6049C56.2631 12.6211 56.2854 12.6696 56.2693 12.7133C56.2531 12.7573 56.2044 12.7797 56.1604 12.7635C55.9479 12.6851 55.7342 12.6087 55.5197 12.5343C55.475 12.5188 55.4511 12.4702 55.4664 12.4254ZM34.4631 11.9099C34.4761 11.9556 34.4496 12.0033 34.404 12.0166C34.1863 12.0802 33.9695 12.1458 33.7537 12.2135C33.709 12.2276 33.6612 12.2029 33.647 12.1582C33.6326 12.1134 33.6574 12.0654 33.7024 12.0513C33.9201 11.9831 34.1389 11.9171 34.3584 11.8531C34.403 11.8401 34.4497 11.8654 34.4631 11.9099ZM53.8389 11.9113C53.8518 11.8663 53.8989 11.8403 53.9439 11.8534C54.1634 11.9175 54.3821 11.9834 54.5998 12.0517C54.6443 12.0656 54.6691 12.1129 54.6553 12.1575C54.6414 12.2024 54.5935 12.2275 54.5486 12.2134C54.3323 12.1456 54.1148 12.0799 53.8967 12.0162C53.8519 12.0031 53.826 11.9562 53.8389 11.9113ZM36.114 11.4763C36.1246 11.5225 36.0959 11.5686 36.0498 11.5797C35.8298 11.6322 35.6106 11.6867 35.3923 11.7435C35.346 11.7555 35.2985 11.728 35.286 11.6818C35.2741 11.6376 35.3004 11.5921 35.3447 11.5806C35.5663 11.5229 35.7887 11.4673 36.0119 11.4139C36.0573 11.4031 36.1029 11.431 36.114 11.4763ZM52.1885 11.4771C52.1993 11.4314 52.2451 11.4032 52.2907 11.4141C52.513 11.4671 52.7344 11.522 52.9549 11.5793C53.0003 11.5911 53.0274 11.6374 53.0156 11.6827C53.0039 11.7283 52.9573 11.7556 52.9117 11.7438C52.6926 11.6868 52.4724 11.6322 52.2516 11.5795C52.2059 11.5686 52.1776 11.5228 52.1885 11.4771ZM37.7836 11.1249C37.7922 11.1708 37.7618 11.215 37.7159 11.2236C37.4924 11.2656 37.2696 11.31 37.0476 11.3563C37.0021 11.3658 36.9573 11.3368 36.9475 11.2913C36.9375 11.2454 36.9668 11.2002 37.0127 11.1906C37.2361 11.1441 37.4602 11.0996 37.6851 11.0573C37.731 11.0487 37.7751 11.079 37.7836 11.1249ZM50.5188 11.1253C50.5271 11.0793 50.5713 11.0488 50.6172 11.0574C50.842 11.0995 51.0659 11.1436 51.2891 11.19C51.3349 11.1995 51.3642 11.2443 51.3548 11.29C51.3453 11.3361 51.3002 11.3656 51.2541 11.356C51.0323 11.3098 50.8098 11.2655 50.5865 11.2235C50.5408 11.2149 50.5105 11.1711 50.5188 11.1253ZM39.4625 10.8104C39.4722 10.8819 39.422 10.9477 39.3505 10.9576C39.1405 10.9866 38.931 11.0175 38.7222 11.0503C38.6761 11.0576 38.6327 11.0262 38.6253 10.98C38.618 10.9339 38.6494 10.8905 38.6956 10.8832C38.9359 10.8454 39.1771 10.81 39.419 10.7772C39.4402 10.7743 39.4597 10.7892 39.4625 10.8104ZM48.8333 10.856C48.8395 10.8096 48.8822 10.777 48.9285 10.7834C49.1552 10.8145 49.3812 10.8478 49.6065 10.8832C49.6526 10.8905 49.6841 10.9339 49.6767 10.98C49.6693 11.0262 49.6259 11.0576 49.5798 11.0503C49.3559 11.0152 49.1312 10.9822 48.9059 10.9513C48.8596 10.945 48.8271 10.9023 48.8333 10.856ZM41.1655 10.6701C41.1695 10.7167 41.1349 10.7577 41.0883 10.7617C40.8617 10.7815 40.6357 10.8031 40.4103 10.8272C40.3639 10.8322 40.3222 10.7987 40.3171 10.7523C40.3121 10.706 40.3455 10.6643 40.3919 10.6593C40.6186 10.635 40.846 10.6129 41.074 10.593C41.1206 10.5889 41.1616 10.6235 41.1655 10.6701ZM47.1378 10.6667C47.141 10.6221 47.18 10.5888 47.2245 10.5927C47.4539 10.6127 47.6826 10.6349 47.9106 10.6593C47.9568 10.6643 47.9902 10.7057 47.9854 10.7519C47.9805 10.7985 47.9387 10.8322 47.8922 10.8272C47.6681 10.8032 47.4433 10.7817 47.218 10.762C47.1695 10.7578 47.1336 10.7152 47.1378 10.6667ZM42.8694 10.5656C42.8708 10.6128 42.8339 10.6522 42.7867 10.6541C42.5595 10.663 42.3328 10.6744 42.1068 10.6876C42.0601 10.6903 42.02 10.6548 42.0173 10.6082C42.0145 10.5616 42.05 10.5216 42.0965 10.5189C42.3249 10.5057 42.5538 10.4948 42.7834 10.486C42.8291 10.4843 42.8676 10.5199 42.8694 10.5656ZM45.433 10.5674C45.4346 10.5208 45.4738 10.4843 45.5204 10.4861C45.7575 10.4952 45.9939 10.5065 46.2297 10.5203C46.263 10.5222 46.2887 10.5506 46.2873 10.584C46.2831 10.6442 46.2312 10.6897 46.1711 10.6862C45.9527 10.6737 45.7337 10.6633 45.5143 10.6548C45.4678 10.653 45.4314 10.614 45.433 10.5674ZM44.4962 10.4609C44.5428 10.4616 44.5801 10.4997 44.5796 10.5462C44.5791 10.5929 44.5409 10.6303 44.4942 10.6299C44.3799 10.6288 44.2655 10.6283 44.151 10.6283C44.0526 10.6283 43.9543 10.6287 43.8561 10.6295C43.7831 10.6301 43.723 10.5719 43.7216 10.4988C43.7216 10.4784 43.738 10.4618 43.7583 10.4616C43.8891 10.4598 44.0199 10.457 44.151 10.457C44.2662 10.457 44.3813 10.4592 44.4962 10.4609Z" fill="white"/>
<circle cx="73.1981" cy="27.304" r="8.13313" fill="#F78E43"/>
<circle cx="22.5113" cy="57.6583" r="5.66414" fill="url(#paint1_radial_26_1800)"/>
<circle cx="26.1422" cy="28.1755" r="4.06656" fill="url(#paint2_radial_26_1800)"/>
<defs>
<radialGradient id="paint0_radial_26_1800" cx="0" cy="0" r="1" gradientTransform="matrix(-11.4113 24.4478 -24.2057 -11.5254 55.5624 35.3891)" gradientUnits="userSpaceOnUse">
<stop stop-color="#76B900"/>
<stop offset="1" stop-color="#355300"/>
</radialGradient>
<radialGradient id="paint1_radial_26_1800" cx="0" cy="0" r="1" gradientUnits="userSpaceOnUse" gradientTransform="translate(29.3892 57.6583) rotate(140.528) scale(8.90999)">
<stop stop-color="#EEC137"/>
<stop offset="1" stop-color="#886E1F"/>
</radialGradient>
<radialGradient id="paint2_radial_26_1800" cx="0" cy="0" r="1" gradientUnits="userSpaceOnUse" gradientTransform="translate(31.1635 25.8868) rotate(128.312) scale(8.09944)">
<stop stop-color="white"/>
<stop offset="1" stop-color="#999999"/>
</radialGradient>
</defs>
</svg>
